<?xml version="1.0" encoding="utf-8"?>
<!-- Generator: Adobe Illustrator 22.1.0, SVG Export Plug-In . SVG Version: 6.00 Build 0)  -->
<svg version="1.1" id="Capa_1" xmlns="http://www.w3.org/2000/svg" xmlns:xlink="http://www.w3.org/1999/xlink" x="0px" y="0px"
	 viewBox="0 0 205.2 52.3" style="enable-background:new 0 0 205.2 52.3;" xml:space="preserve">
<style type="text/css">
	.st0{fill:#FDD836;}
	.st1{fill:#03A9F4;}
	.st2{fill:#001F5B;}
</style>
<g id="XMLID_3228_">
	<g id="XMLID_2998_">
		<path id="XMLID_3031_" class="st2" d="M22.6,0L0,13v26.2l22.6,13.1l22.7-13.1V13L22.6,0z M22.6,6.1l10,5.8h-5.8v15.9h-8.4V11.9
			h-5.8L22.6,6.1z M5.3,16.1l4.1-2.4v24.8l-4.1-2.4V16.1z M22.6,46.1l-10-5.8h5.8V36h8.4v4.3h5.8L22.6,46.1z M40,36.1l-4.2,2.4V13.7
			l4.2,2.4V36.1z"/>
		<g id="XMLID_2999_">
			<path id="XMLID_3017_" class="st2" d="M67,37.7H48.4V14.6h18.4v5.9H55.5v3h10.4v5.3H55.5v3H67V37.7z"/>
			<path id="XMLID_3014_" class="st2" d="M83.1,37.7l-6-7.1h-0.5v7.1h-7.1V14.6h12.6c5,0,8.3,3.2,8.3,7.9c0,3.7-2,6.4-5.3,7.6
				l6.6,7.7H83.1z M76.6,25.1h3.9c1.8,0,2.9-0.9,2.9-2.4c0-1.3-1.1-2.3-2.9-2.3h-3.9V25.1z"/>
			<path id="XMLID_3012_" class="st2" d="M116.9,29.2c-1,5.6-5.5,9-12,9c-7,0-12.5-5.3-12.5-12.1c0-6.8,5.5-12.1,12.5-12.1
				c5.9,0,11,3.4,12,8.8l-7.1,1.7c-0.6-2.7-2.3-4.1-4.9-4.1c-3,0-5.3,2.4-5.3,5.7s2.4,5.7,5.3,5.7c2.5,0,4.2-1.5,4.9-4.3L116.9,29.2
				z"/>
			<path id="XMLID_3008_" class="st2" d="M141,27.2c0,6.8-4.3,11-10.7,11c-6.6,0-11-4.2-11-11V14.6h7.2v12.6c0,3,1.5,4.6,3.8,4.6
				c2.1,0,3.5-1.7,3.5-4.6V14.6h7.2V27.2z"/>
			<path id="XMLID_3005_" class="st2" d="M161.6,37.7h-17.7V14.6h7.1v17h10.6V37.7z"/>
			<path id="XMLID_3003_" class="st2" d="M182.5,37.7h-18.6V14.6h18.4v5.9H171v3h10.4v5.3H171v3h11.5V37.7z"/>
			<path id="XMLID_3001_" class="st2" d="M205.1,20.8l-6.9,1.4c-0.5-2.2-2.1-2.7-3.2-2.7c-1.2,0-2.1,0.6-2.1,1.6
				c0,0.6,0.2,1.1,1.1,1.3l4.6,1.2c4.4,1.1,6.8,3.1,6.8,6.9c0,5.6-5.4,7.8-10,7.8c-5.8,0-10.1-2.9-10.8-7.2l7.2-1.3
				c0.5,2,1.8,2.9,3.6,2.9c1.3,0,2.4-0.5,2.4-1.6c0-0.6-0.3-1-1.3-1.3l-4.8-1.2c-4.1-1-6.4-3.1-6.4-6.8c0-5,4.3-7.7,9.7-7.7
				C200.4,14.1,204.2,16.4,205.1,20.8z"/>
			<polygon id="XMLID_3000_" class="st2" points="54.7,12.5 57.5,6.8 65.9,6.8 61.3,12.5 			"/>
		</g>
	</g>
	<g id="XMLID_2995_">
		<path id="XMLID_3037_" class="st2" d="M53.1,44.6c0,0.1,0,0.3,0,0.4c0,1.3-0.9,2.2-2.2,2.2c-1.3,0-2.3-1-2.3-2.2
			c0-1.3,1-2.2,2.3-2.2c0.9,0,1.8,0.4,2.1,1.3l-0.8,0.3c-0.3-0.6-0.8-0.8-1.3-0.8c-0.8,0-1.4,0.6-1.4,1.4c0,0.8,0.6,1.4,1.4,1.4
			c0.7,0,1.1-0.4,1.3-1h-1.5v-0.8H53.1z"/>
		<path id="XMLID_3163_" class="st2" d="M59.1,47.1l-1.4-1.6h-0.5v1.6h-0.9v-4.3h2.1c0.9,0,1.5,0.5,1.5,1.4c0,0.7-0.5,1.2-1.2,1.3
			l1.4,1.6H59.1z M58.5,44.8c0.4,0,0.7-0.2,0.7-0.6c0-0.3-0.3-0.6-0.7-0.6h-1.2v1.1H58.5z"/>
		<path id="XMLID_3175_" class="st2" d="M66.9,45.2c0,1.2-0.7,2-1.8,2c-1.1,0-1.9-0.8-1.9-2v-2.4h0.9v2.4c0,0.7,0.4,1.2,1,1.2
			c0.6,0,1-0.5,1-1.2v-2.4h0.9V45.2z M64.7,42.4l0.4-0.9h1l-0.7,0.9H64.7z"/>
		<path id="XMLID_3178_" class="st2" d="M73.5,47.1l-0.4-0.9h-1.9l-0.4,0.9h-0.9l1.9-4.3h0.8l1.9,4.3H73.5z M72.1,43.9l-0.6,1.5h1.2
			L72.1,43.9z"/>
		<path id="XMLID_3181_" class="st2" d="M80.6,44l-0.9,0.2c-0.1-0.4-0.4-0.7-0.8-0.7c-0.4,0-0.7,0.2-0.7,0.5c0,0.2,0.1,0.4,0.4,0.4
			l0.9,0.2c0.7,0.1,1.1,0.6,1.1,1.2c0,0.8-0.7,1.4-1.7,1.4c-0.9,0-1.7-0.4-1.8-1.3l0.9-0.2c0.1,0.5,0.5,0.7,1,0.7
			c0.5,0,0.8-0.2,0.8-0.5c0-0.2-0.1-0.4-0.5-0.5l-0.9-0.2c-0.5-0.1-1.1-0.4-1.1-1.2c0-0.8,0.6-1.3,1.6-1.3
			C79.8,42.7,80.5,43.2,80.6,44z"/>
		<path id="XMLID_3183_" class="st2" d="M90.3,47.1h-0.9v-1.4l-1.7-2.9h1l1.2,2l1.2-2h1l-1.7,2.9V47.1z"/>
		<path id="XMLID_3185_" class="st2" d="M104.1,47.1h-0.8v-2.5l-1.3,2.5h-0.4l-1.4-2.5v2.5h-0.8v-4.3h0.8l1.6,3l1.6-3h0.8V47.1z"/>
		<path id="XMLID_3187_" class="st2" d="M110.7,47.1l-0.4-0.9h-1.9l-0.4,0.9h-0.9l1.9-4.3h0.8l1.9,4.3H110.7z M109.4,43.9l-0.6,1.5
			h1.2L109.4,43.9z"/>
		<path id="XMLID_3190_" class="st2" d="M118.6,47.1h-0.7l-2.4-2.8v2.8h-0.9v-4.3h0.7l2.4,2.8v-2.8h0.9V47.1z"/>
		<path id="XMLID_3192_" class="st2" d="M123.5,46.3h0.9v0.8h-2.7v-0.8h0.9v-2.7h-0.9v-0.8h2.7v0.8h-0.9V46.3z"/>
		<path id="XMLID_3194_" class="st2" d="M131.8,45c0,1.3-1,2.2-2.3,2.2s-2.3-1-2.3-2.2c0-1.2,1-2.2,2.3-2.2S131.8,43.7,131.8,45z
			 M131,45c0-0.8-0.6-1.4-1.4-1.4s-1.4,0.6-1.4,1.4s0.6,1.4,1.4,1.4S131,45.8,131,45z"/>
		<path id="XMLID_3197_" class="st2" d="M137.9,44.9c0.4,0,0.8,0.4,0.8,1c0,0.7-0.4,1.2-1.4,1.2h-2.1v-4.3h2.1
			c0.8,0,1.3,0.5,1.3,1.2C138.5,44.6,138.1,44.9,137.9,44.9L137.9,44.9z M136,44.6h1.1c0.3,0,0.6-0.2,0.6-0.6c0-0.3-0.2-0.5-0.5-0.5
			H136V44.6z M137.2,46.4c0.4,0,0.6-0.2,0.6-0.5c0-0.3-0.2-0.5-0.6-0.5H136v1.1H137.2z"/>
		<path id="XMLID_3202_" class="st2" d="M144.7,47.1l-1.4-1.6h-0.5v1.6h-0.9v-4.3h2.1c0.9,0,1.5,0.5,1.5,1.4c0,0.7-0.5,1.2-1.2,1.3
			l1.4,1.6H144.7z M144,44.8c0.4,0,0.7-0.2,0.7-0.6c0-0.3-0.3-0.6-0.7-0.6h-1.2v1.1H144z"/>
		<path id="XMLID_3205_" class="st2" d="M152,47.1l-0.4-0.9h-1.9l-0.4,0.9h-0.9l1.9-4.3h0.8l1.9,4.3H152z M150.7,43.9l-0.6,1.5h1.2
			L150.7,43.9z"/>
		<path id="XMLID_3208_" class="st2" d="M159.2,44l-0.9,0.2c-0.1-0.4-0.4-0.7-0.8-0.7c-0.4,0-0.7,0.2-0.7,0.5c0,0.2,0.1,0.4,0.4,0.4
			l0.9,0.2c0.7,0.1,1.1,0.6,1.1,1.2c0,0.8-0.7,1.4-1.7,1.4c-0.9,0-1.7-0.4-1.8-1.3l0.9-0.2c0.1,0.5,0.5,0.7,1,0.7
			c0.5,0,0.8-0.2,0.8-0.5c0-0.2-0.1-0.4-0.5-0.5l-0.9-0.2c-0.5-0.1-1.1-0.4-1.1-1.2c0-0.8,0.6-1.3,1.6-1.3
			C158.4,42.7,159,43.2,159.2,44z"/>
	</g>
	<polyline id="XMLID_3630_" class="st2" points="163.9,45.5 163.9,44 200.3,44 200.3,45.5 	"/>
</g>
</svg>
