<?xml version="1.0" encoding="utf-8"?>
<!-- Generator: Adobe Illustrator 22.1.0, SVG Export Plug-In . SVG Version: 6.00 Build 0)  -->
<svg version="1.1" id="Capa_1" xmlns="http://www.w3.org/2000/svg" xmlns:xlink="http://www.w3.org/1999/xlink" x="0px" y="0px"
	 viewBox="0 0 466 233.5" style="enable-background:new 0 0 466 233.5;" xml:space="preserve">
<style type="text/css">
	.st0{fill:#FFFFFF;}
</style>
<g>
	<g>
		<g>
			<path class="st0" d="M39.9,117.6H-1V76.7h40.9V117.6z M1,115.5h36.8V78.7H1V115.5z"/>
			<path class="st0" d="M39.9,78.7H-1V37.9h40.9V78.7z M1,76.7h36.8V39.9H1V76.7z"/>
			<path class="st0" d="M39.9,39.9H-1V-1h40.9V39.9z M1,37.9h36.8V1H1V37.9z"/>
			<path class="st0" d="M78.7,39.9H37.9V-1h40.9L78.7,39.9L78.7,39.9z M39.9,37.9h36.8V1H39.9V37.9z"/>
			<path class="st0" d="M117.6,39.9H76.7V-1h40.9V39.9z M78.7,37.9h36.8V1H78.7V37.9z"/>
			<g>
				<rect x="18.4" y="77.7" class="st0" width="2" height="38.8"/>
				<rect x="0.1" y="96.1" class="st0" width="38.8" height="2"/>
			</g>
			<g>
				<rect x="18.4" y="38.9" class="st0" width="2" height="38.8"/>
				<rect x="0.1" y="57.3" class="st0" width="38.8" height="2"/>
			</g>
			<g>
				<rect x="18.4" class="st0" width="2" height="38.8"/>
				<rect x="0.1" y="18.4" class="st0" width="38.8" height="2"/>
			</g>
			<g>
				<rect x="57.2" class="st0" width="2" height="38.8"/>
				<rect x="38.9" y="18.4" class="st0" width="38.8" height="2"/>
			</g>
			<g>
				<rect x="96.1" class="st0" width="2" height="38.8"/>
				<rect x="77.7" y="18.4" class="st0" width="38.8" height="2"/>
			</g>
			<circle class="st0" cx="19.5" cy="97.1" r="3.4"/>
			<circle class="st0" cx="19.5" cy="77.7" r="3.4"/>
			<circle class="st0" cx="58.3" cy="77.7" r="3.4"/>
			<circle class="st0" cx="19.5" cy="58.3" r="3.4"/>
			<circle class="st0" cx="19.5" cy="38.9" r="3.4"/>
			<circle class="st0" cx="58.3" cy="38.9" r="3.4"/>
			<circle class="st0" cx="19.5" cy="19.4" r="3.4"/>
			<circle class="st0" cx="58.3" cy="19.4" r="3.4"/>
			<g>
				<path class="st0" d="M78.7,78.7H37.9V37.9h40.9L78.7,78.7L78.7,78.7z M39.9,76.7h36.8V39.9H39.9V76.7z"/>
				<g>
					<rect x="57.2" y="38.9" class="st0" width="2" height="38.8"/>
					<rect x="38.9" y="57.3" class="st0" width="38.8" height="2"/>
				</g>
				<circle class="st0" cx="58.3" cy="58.3" r="3.4"/>
			</g>
			<g>
				<path class="st0" d="M117.6,78.7H76.7V37.9h40.9V78.7z M78.7,76.7h36.8V39.9H78.7V76.7z"/>
				<g>
					<rect x="96.1" y="38.9" class="st0" width="2" height="38.8"/>
					<rect x="77.7" y="57.3" class="st0" width="38.8" height="2"/>
				</g>
				<circle class="st0" cx="97.1" cy="58.3" r="3.4"/>
			</g>
			<g>
				<path class="st0" d="M78.7,117.6H37.9V76.7h40.9L78.7,117.6L78.7,117.6z M39.9,115.5h36.8V78.7H39.9V115.5z"/>
				<g>
					<rect x="57.2" y="77.7" class="st0" width="2" height="38.8"/>
					<rect x="38.9" y="96.1" class="st0" width="38.8" height="2"/>
				</g>
				<circle class="st0" cx="58.3" cy="97.1" r="3.4"/>
			</g>
			<g>
				<path class="st0" d="M117.6,117.6H76.7V76.7h40.9V117.6z M78.7,115.5h36.8V78.7H78.7V115.5z"/>
				<g>
					<rect x="96.1" y="77.7" class="st0" width="2" height="38.8"/>
					<rect x="77.7" y="96.1" class="st0" width="38.8" height="2"/>
				</g>
				<circle class="st0" cx="97.1" cy="97.1" r="3.4"/>
			</g>
			<circle class="st0" cx="97.1" cy="19.4" r="3.4"/>
			<path class="st0" d="M19.5,0h3.4c0,1.9-1.5,3.4-3.4,3.4S16.1,1.9,16.1,0H19.5z"/>
			<circle class="st0" cx="38.9" cy="97.1" r="3.4"/>
			<circle class="st0" cx="38.9" cy="77.7" r="3.4"/>
			<circle class="st0" cx="38.9" cy="58.3" r="3.4"/>
			<circle class="st0" cx="38.9" cy="38.9" r="3.4"/>
			<circle class="st0" cx="38.9" cy="19.4" r="3.4"/>
			<path class="st0" d="M38.9,0h3.4c0,1.9-1.5,3.4-3.4,3.4S35.5,1.9,35.5,0H38.9z"/>
			<circle class="st0" cx="77.7" cy="97.1" r="3.4"/>
			<circle class="st0" cx="77.7" cy="77.7" r="3.4"/>
			<circle class="st0" cx="77.7" cy="58.3" r="3.4"/>
			<circle class="st0" cx="77.7" cy="38.9" r="3.4"/>
			<circle class="st0" cx="77.7" cy="19.4" r="3.4"/>
			<path class="st0" d="M77.7,0h3.4c0,1.9-1.5,3.4-3.4,3.4S74.3,1.9,74.3,0H77.7z"/>
			<path class="st0" d="M58.3,0h3.3c0,1.9-1.5,3.4-3.4,3.4S54.8,1.9,54.8,0H58.3z"/>
			<path class="st0" d="M97.1,0h3.4c0,1.9-1.5,3.4-3.4,3.4S93.7,1.9,93.7,0H97.1z"/>
			<g>
				<path class="st0" d="M97.1,116.5h-3.4c0-1.9,1.5-3.4,3.4-3.4s3.4,1.5,3.4,3.4H97.1z"/>
				<path class="st0" d="M77.7,116.5h-3.4c0-1.9,1.5-3.4,3.4-3.4s3.4,1.5,3.4,3.4H77.7z"/>
				<path class="st0" d="M38.8,116.5h-3.4c0-1.9,1.5-3.4,3.4-3.4s3.4,1.5,3.4,3.4H38.8z"/>
				<path class="st0" d="M58.3,116.5h-3.4c0-1.9,1.5-3.4,3.4-3.4s3.4,1.5,3.4,3.4H58.3z"/>
				<path class="st0" d="M19.5,116.5h-3.4c0-1.9,1.5-3.4,3.4-3.4s3.4,1.5,3.4,3.4H19.5z"/>
			</g>
			<g>
				<path class="st0" d="M19.5,118L-1.4,97.1l20.9-20.9l20.8,20.9L19.5,118z M1.5,97.1l18,18l18-18l-18-18L1.5,97.1z"/>
				<path class="st0" d="M19.5,79.1L-1.4,58.3l20.9-20.9l20.8,20.9L19.5,79.1z M1.5,58.3l18,18l18-18l-18-18L1.5,58.3z"/>
				<path class="st0" d="M19.5,40.3L-1.4,19.4L19.5-1.4l20.8,20.8L19.5,40.3z M1.5,19.4l18,18l18-18l-18-18L1.5,19.4z"/>
			</g>
			<g>
				<path class="st0" d="M58.3,118L37.4,97.1l20.9-20.9l20.9,20.9L58.3,118z M40.3,97.1l18,18l18-18l-18-18L40.3,97.1z"/>
				<path class="st0" d="M58.3,79.1L37.4,58.3l20.9-20.9l20.9,20.9L58.3,79.1z M40.3,58.3l18,18l18-18l-18-18L40.3,58.3z"/>
				<path class="st0" d="M58.3,40.3L37.4,19.4L58.3-1.4l20.9,20.8L58.3,40.3z M40.3,19.4l18,18l18-18l-18-18L40.3,19.4z"/>
			</g>
			<g>
				<path class="st0" d="M97.1,118L76.3,97.1l20.9-20.9l20.9,20.9L97.1,118z M79.1,97.1l18,18l18-18l-18-18L79.1,97.1z"/>
				<path class="st0" d="M97.1,79.1L76.3,58.3l20.9-20.9l20.9,20.9L97.1,79.1z M79.1,58.3l18,18l18-18l-18-18L79.1,58.3z"/>
				<path class="st0" d="M97.1,40.3L76.3,19.4L97.1-1.4L118,19.4L97.1,40.3z M79.1,19.4l18,18l18-18l-18-18L79.1,19.4z"/>
			</g>
		</g>
		<g>
			<path class="st0" d="M0,97.1v-3.4c1.9,0,3.4,1.5,3.4,3.4s-1.5,3.4-3.4,3.4V97.1z"/>
			<path class="st0" d="M0,77.7v-3.4c1.9,0,3.4,1.5,3.4,3.4S1.9,81.1,0,81.1V77.7z"/>
			<path class="st0" d="M0,58.3v-3.4c1.9,0,3.4,1.5,3.4,3.4S1.9,61.7,0,61.7V58.3z"/>
			<path class="st0" d="M0,38.9v-3.4c1.9,0,3.4,1.5,3.4,3.4S1.9,42.3,0,42.3V38.9z"/>
			<path class="st0" d="M0,19.4V16c1.9,0,3.4,1.5,3.4,3.4S1.9,22.8,0,22.8V19.4z"/>
		</g>
		<g>
			<path class="st0" d="M116.5,19.4v3.4c-1.9,0-3.4-1.5-3.4-3.4s1.5-3.4,3.4-3.4V19.4z"/>
			<path class="st0" d="M116.5,38.9v3.4c-1.9,0-3.4-1.5-3.4-3.4s1.5-3.4,3.4-3.4V38.9z"/>
			<path class="st0" d="M116.5,58.3v3.4c-1.9,0-3.4-1.5-3.4-3.4s1.5-3.4,3.4-3.4V58.3z"/>
			<path class="st0" d="M116.5,77.7v3.4c-1.9,0-3.4-1.5-3.4-3.4s1.5-3.4,3.4-3.4V77.7z"/>
			<path class="st0" d="M116.5,97.1v3.4c-1.9,0-3.4-1.5-3.4-3.4s1.5-3.4,3.4-3.4V97.1z"/>
		</g>
		<circle class="st0" cx="97.1" cy="77.7" r="3.4"/>
		<circle class="st0" cx="97.1" cy="38.9" r="3.4"/>
		<g>
			<path class="st0" d="M0.1,113.2c1.9,0,3.4,1.5,3.4,3.4H0.1V113.2z"/>
			<path class="st0" d="M3.5,0c0,1.9-1.5,3.4-3.4,3.4V0H3.5z"/>
		</g>
		<g>
			<path class="st0" d="M116.5,3.3c-1.9,0-3.4-1.5-3.4-3.4h3.4V3.3z"/>
			<path class="st0" d="M113.1,116.5c0-1.9,1.5-3.4,3.4-3.4v3.4H113.1z"/>
		</g>
	</g>
	<g>
		<g>
			<path class="st0" d="M156.4,117.6h-40.9V76.7h40.9V117.6z M117.6,115.6h36.8V78.7h-36.8C117.6,78.7,117.6,115.6,117.6,115.6z"/>
			<path class="st0" d="M156.4,78.7h-40.9V37.9h40.9V78.7z M117.6,76.7h36.8V39.9h-36.8C117.6,39.9,117.6,76.7,117.6,76.7z"/>
			<path class="st0" d="M156.4,39.9h-40.9V-1h40.9V39.9z M117.6,37.9h36.8V1.1h-36.8C117.6,1.1,117.6,37.9,117.6,37.9z"/>
			<path class="st0" d="M195.2,39.9h-40.9V-1h40.9L195.2,39.9L195.2,39.9z M156.4,37.9h36.8V1.1h-36.8V37.9z"/>
			<path class="st0" d="M234.1,39.9h-40.9V-1h40.9V39.9z M195.2,37.9H232V1.1h-36.8V37.9z"/>
			<g>
				<rect x="135" y="77.7" class="st0" width="2" height="38.8"/>
				<rect x="116.6" y="96.1" class="st0" width="38.8" height="2"/>
			</g>
			<g>
				<rect x="135" y="38.9" class="st0" width="2" height="38.8"/>
				<rect x="116.6" y="57.3" class="st0" width="38.8" height="2"/>
			</g>
			<g>
				<rect x="135" class="st0" width="2" height="38.8"/>
				<rect x="116.6" y="18.5" class="st0" width="38.8" height="2"/>
			</g>
			<g>
				<rect x="173.8" class="st0" width="2" height="38.8"/>
				<rect x="155.4" y="18.5" class="st0" width="38.8" height="2"/>
			</g>
			<g>
				<rect x="212.6" class="st0" width="2" height="38.8"/>
				<rect x="194.3" y="18.5" class="st0" width="38.8" height="2"/>
			</g>
			<circle class="st0" cx="136" cy="97.1" r="3.4"/>
			<circle class="st0" cx="136" cy="77.7" r="3.4"/>
			<circle class="st0" cx="174.8" cy="77.7" r="3.4"/>
			<circle class="st0" cx="136" cy="58.3" r="3.4"/>
			<circle class="st0" cx="136" cy="38.9" r="3.4"/>
			<circle class="st0" cx="174.8" cy="38.9" r="3.4"/>
			<circle class="st0" cx="136" cy="19.5" r="3.4"/>
			<circle class="st0" cx="174.8" cy="19.5" r="3.4"/>
			<g>
				<path class="st0" d="M195.2,78.7h-40.9V37.9h40.9L195.2,78.7L195.2,78.7z M156.4,76.7h36.8V39.9h-36.8V76.7z"/>
				<g>
					<rect x="173.8" y="38.9" class="st0" width="2" height="38.8"/>
					<rect x="155.4" y="57.3" class="st0" width="38.8" height="2"/>
				</g>
				<circle class="st0" cx="174.8" cy="58.3" r="3.4"/>
			</g>
			<g>
				<path class="st0" d="M234.1,78.7h-40.9V37.9h40.9V78.7z M195.2,76.7H232V39.9h-36.8V76.7z"/>
				<g>
					<rect x="212.6" y="38.9" class="st0" width="2" height="38.8"/>
					<rect x="194.3" y="57.3" class="st0" width="38.8" height="2"/>
				</g>
				<circle class="st0" cx="213.6" cy="58.3" r="3.4"/>
			</g>
			<g>
				<path class="st0" d="M195.2,117.6h-40.9V76.7h40.9L195.2,117.6L195.2,117.6z M156.4,115.6h36.8V78.7h-36.8V115.6z"/>
				<g>
					<rect x="173.8" y="77.7" class="st0" width="2" height="38.8"/>
					<rect x="155.4" y="96.1" class="st0" width="38.8" height="2"/>
				</g>
				<circle class="st0" cx="174.8" cy="97.2" r="3.4"/>
			</g>
			<g>
				<path class="st0" d="M234.1,117.6h-40.9V76.7h40.9V117.6z M195.2,115.6H232V78.7h-36.8V115.6z"/>
				<g>
					<rect x="212.6" y="77.7" class="st0" width="2" height="38.8"/>
					<rect x="194.3" y="96.1" class="st0" width="38.8" height="2"/>
				</g>
				<circle class="st0" cx="213.6" cy="97.2" r="3.4"/>
			</g>
			<circle class="st0" cx="213.6" cy="19.5" r="3.4"/>
			<path class="st0" d="M136,0h3.4c0,1.9-1.5,3.4-3.4,3.4s-3.4-1.5-3.4-3.4H136z"/>
			<circle class="st0" cx="155.4" cy="97.1" r="3.4"/>
			<circle class="st0" cx="155.4" cy="77.7" r="3.4"/>
			<circle class="st0" cx="155.4" cy="58.3" r="3.4"/>
			<circle class="st0" cx="155.4" cy="38.9" r="3.4"/>
			<circle class="st0" cx="155.4" cy="19.5" r="3.4"/>
			<path class="st0" d="M155.4,0h3.4c0,1.9-1.5,3.4-3.4,3.4S152,1.9,152,0H155.4z"/>
			<circle class="st0" cx="194.3" cy="97.1" r="3.4"/>
			<circle class="st0" cx="194.3" cy="77.7" r="3.4"/>
			<circle class="st0" cx="194.3" cy="58.3" r="3.4"/>
			<circle class="st0" cx="194.3" cy="38.9" r="3.4"/>
			<circle class="st0" cx="194.3" cy="19.5" r="3.4"/>
			<path class="st0" d="M194.3,0h3.4c0,1.9-1.5,3.4-3.4,3.4s-3.4-1.5-3.4-3.4C190.9,0,194.3,0,194.3,0z"/>
			<path class="st0" d="M174.8,0h3.4c0,1.9-1.5,3.4-3.4,3.4s-3.4-1.5-3.4-3.4C171.4,0,174.8,0,174.8,0z"/>
			<path class="st0" d="M213.6,0h3.4c0,1.9-1.5,3.4-3.4,3.4s-3.4-1.5-3.4-3.4C210.2,0,213.6,0,213.6,0z"/>
			<g>
				<path class="st0" d="M213.6,116.6h-3.4c0-1.9,1.5-3.4,3.4-3.4s3.4,1.5,3.4,3.4H213.6z"/>
				<path class="st0" d="M194.2,116.6h-3.4c0-1.9,1.5-3.4,3.4-3.4s3.4,1.5,3.4,3.4H194.2z"/>
				<path class="st0" d="M155.3,116.6h-3.4c0-1.9,1.5-3.4,3.4-3.4s3.4,1.5,3.4,3.4H155.3z"/>
				<path class="st0" d="M174.8,116.6h-3.4c0-1.9,1.5-3.4,3.4-3.4s3.4,1.5,3.4,3.4H174.8z"/>
				<path class="st0" d="M136,116.6h-3.4c0-1.9,1.5-3.4,3.4-3.4s3.4,1.5,3.4,3.4H136z"/>
			</g>
			<g>
				<path class="st0" d="M136,118l-20.9-20.8L136,76.3l20.8,20.9L136,118z M118,97.1l18,18l18-18l-18-18L118,97.1z"/>
				<path class="st0" d="M136,79.2l-20.9-20.8L136,37.5l20.8,20.9L136,79.2z M118,58.3l18,18l18-18l-18-18L118,58.3z"/>
				<path class="st0" d="M136,40.3l-20.9-20.9L136-1.4l20.8,20.8L136,40.3z M118,19.5l18,18l18-18l-18-18L118,19.5z"/>
			</g>
			<g>
				<path class="st0" d="M174.8,118l-20.9-20.8l20.9-20.9l20.8,20.8L174.8,118z M156.8,97.1l18,18l18-18l-18-18L156.8,97.1z"/>
				<path class="st0" d="M174.8,79.2l-20.9-20.8l20.9-20.9l20.8,20.8L174.8,79.2z M156.8,58.3l18,18l18-18l-18-18L156.8,58.3z"/>
				<path class="st0" d="M174.8,40.3l-20.9-20.9l20.9-20.8l20.8,20.9L174.8,40.3z M156.8,19.5l18,18l18-18l-18-18L156.8,19.5z"/>
			</g>
			<g>
				<path class="st0" d="M213.6,118l-20.9-20.8l20.9-20.9l20.9,20.9L213.6,118z M195.7,97.1l18,18l18-18l-18-18L195.7,97.1z"/>
				<path class="st0" d="M213.6,79.2l-20.9-20.8l20.9-20.9l20.9,20.9L213.6,79.2z M195.7,58.3l18,18l18-18l-18-18L195.7,58.3z"/>
				<path class="st0" d="M213.6,40.3l-20.9-20.9l20.9-20.8l20.9,20.8L213.6,40.3z M195.7,19.5l18,18l18-18l-18-18L195.7,19.5z"/>
			</g>
		</g>
		<g>
			<path class="st0" d="M116.5,97.1v-3.4c1.9,0,3.4,1.5,3.4,3.4s-1.5,3.4-3.4,3.4V97.1z"/>
			<path class="st0" d="M116.5,77.7v-3.4c1.9,0,3.4,1.5,3.4,3.4s-1.5,3.4-3.4,3.4V77.7z"/>
			<path class="st0" d="M116.5,58.3v-3.4c1.9,0,3.4,1.5,3.4,3.4s-1.5,3.4-3.4,3.4V58.3z"/>
			<path class="st0" d="M116.5,38.9v-3.4c1.9,0,3.4,1.5,3.4,3.4s-1.5,3.4-3.4,3.4V38.9z"/>
			<path class="st0" d="M116.5,19.5v-3.4c1.9,0,3.4,1.5,3.4,3.4s-1.5,3.4-3.4,3.4V19.5z"/>
		</g>
		<g>
			<path class="st0" d="M233,19.5v3.4c-1.9,0-3.4-1.5-3.4-3.4s1.5-3.4,3.4-3.4V19.5z"/>
			<path class="st0" d="M233,38.9v3.4c-1.9,0-3.4-1.5-3.4-3.4s1.5-3.4,3.4-3.4V38.9z"/>
			<path class="st0" d="M233,58.3v3.4c-1.9,0-3.4-1.5-3.4-3.4s1.5-3.4,3.4-3.4V58.3z"/>
			<path class="st0" d="M233,77.7v3.4c-1.9,0-3.4-1.5-3.4-3.4s1.5-3.4,3.4-3.4V77.7z"/>
			<path class="st0" d="M233,97.1v3.4c-1.9,0-3.4-1.5-3.4-3.4s1.5-3.4,3.4-3.4V97.1z"/>
		</g>
		<circle class="st0" cx="213.6" cy="77.7" r="3.4"/>
		<circle class="st0" cx="213.6" cy="38.9" r="3.4"/>
		<g>
			<path class="st0" d="M116.6,113.2c1.9,0,3.4,1.5,3.4,3.4h-3.4V113.2z"/>
			<path class="st0" d="M120,0c0,1.9-1.5,3.4-3.4,3.4V0H120z"/>
		</g>
		<g>
			<path class="st0" d="M233,3.4c-1.9,0-3.4-1.5-3.4-3.4h3.4V3.4z"/>
			<path class="st0" d="M229.6,116.6c0-1.9,1.5-3.4,3.4-3.4v3.4H229.6z"/>
		</g>
	</g>
	<g>
		<g>
			<path class="st0" d="M39.9,234.5H-1v-40.9h40.9V234.5z M1,232.5h36.8v-36.8H1V232.5z"/>
			<path class="st0" d="M39.9,195.7H-1v-40.9h40.9C39.9,154.8,39.9,195.7,39.9,195.7z M1,193.7h36.8v-36.8H1V193.7z"/>
			<path class="st0" d="M39.9,156.8H-1v-40.9h40.9V156.8z M1,154.8h36.8V118H1V154.8z"/>
			<path class="st0" d="M78.7,156.8H37.9v-40.9h40.9L78.7,156.8L78.7,156.8z M39.9,154.8h36.8V118H39.9V154.8z"/>
			<path class="st0" d="M117.6,156.8H76.7v-40.9h40.9V156.8z M78.7,154.8h36.8V118H78.7V154.8z"/>
			<g>
				<rect x="18.4" y="194.7" class="st0" width="2" height="38.8"/>
				<rect x="0.1" y="213.1" class="st0" width="38.8" height="2"/>
			</g>
			<g>
				<rect x="18.4" y="155.8" class="st0" width="2" height="38.8"/>
				<rect x="0.1" y="174.2" class="st0" width="38.8" height="2"/>
			</g>
			<g>
				<rect x="18.4" y="117" class="st0" width="2" height="38.8"/>
				<rect x="0.1" y="135.4" class="st0" width="38.8" height="2"/>
			</g>
			<g>
				<rect x="57.2" y="117" class="st0" width="2" height="38.8"/>
				<rect x="38.9" y="135.4" class="st0" width="38.8" height="2"/>
			</g>
			<g>
				<rect x="96.1" y="117" class="st0" width="2" height="38.8"/>
				<rect x="77.7" y="135.4" class="st0" width="38.8" height="2"/>
			</g>
			<circle class="st0" cx="19.5" cy="214.1" r="3.4"/>
			<circle class="st0" cx="19.5" cy="194.7" r="3.4"/>
			<circle class="st0" cx="58.3" cy="194.7" r="3.4"/>
			<circle class="st0" cx="19.5" cy="175.2" r="3.4"/>
			<circle class="st0" cx="19.5" cy="155.8" r="3.4"/>
			<circle class="st0" cx="58.3" cy="155.8" r="3.4"/>
			<circle class="st0" cx="19.5" cy="136.4" r="3.4"/>
			<circle class="st0" cx="58.3" cy="136.4" r="3.4"/>
			<g>
				<path class="st0" d="M78.7,195.7H37.9v-40.9h40.9L78.7,195.7L78.7,195.7z M39.9,193.7h36.8v-36.8H39.9V193.7z"/>
				<g>
					<rect x="57.2" y="155.8" class="st0" width="2" height="38.8"/>
					<rect x="38.9" y="174.2" class="st0" width="38.8" height="2"/>
				</g>
				<circle class="st0" cx="58.3" cy="175.2" r="3.4"/>
			</g>
			<g>
				<path class="st0" d="M117.6,195.7H76.7v-40.9h40.9V195.7z M78.7,193.7h36.8v-36.8H78.7V193.7z"/>
				<g>
					<rect x="96.1" y="155.8" class="st0" width="2" height="38.8"/>
					<rect x="77.7" y="174.2" class="st0" width="38.8" height="2"/>
				</g>
				<circle class="st0" cx="97.1" cy="175.2" r="3.4"/>
			</g>
			<g>
				<path class="st0" d="M78.7,234.5H37.9v-40.9h40.9L78.7,234.5L78.7,234.5z M39.9,232.5h36.8v-36.8H39.9V232.5z"/>
				<g>
					<rect x="57.2" y="194.7" class="st0" width="2" height="38.8"/>
					<rect x="38.9" y="213.1" class="st0" width="38.8" height="2"/>
				</g>
				<circle class="st0" cx="58.3" cy="214.1" r="3.4"/>
			</g>
			<g>
				<path class="st0" d="M117.6,234.5H76.7v-40.9h40.9V234.5z M78.7,232.5h36.8v-36.8H78.7V232.5z"/>
				<g>
					<rect x="96.1" y="194.7" class="st0" width="2" height="38.8"/>
					<rect x="77.7" y="213.1" class="st0" width="38.8" height="2"/>
				</g>
				<circle class="st0" cx="97.1" cy="214.1" r="3.4"/>
			</g>
			<circle class="st0" cx="97.1" cy="136.4" r="3.4"/>
			<path class="st0" d="M19.5,117h3.4c0,1.9-1.5,3.4-3.4,3.4s-3.4-1.5-3.4-3.4H19.5z"/>
			<circle class="st0" cx="38.9" cy="214.1" r="3.4"/>
			<circle class="st0" cx="38.9" cy="194.7" r="3.4"/>
			<circle class="st0" cx="38.9" cy="175.2" r="3.4"/>
			<circle class="st0" cx="38.9" cy="155.8" r="3.4"/>
			<circle class="st0" cx="38.9" cy="136.4" r="3.4"/>
			<path class="st0" d="M38.9,117h3.4c0,1.9-1.5,3.4-3.4,3.4s-3.4-1.5-3.4-3.4H38.9z"/>
			<circle class="st0" cx="77.7" cy="214.1" r="3.4"/>
			<circle class="st0" cx="77.7" cy="194.7" r="3.4"/>
			<circle class="st0" cx="77.7" cy="175.2" r="3.4"/>
			<circle class="st0" cx="77.7" cy="155.8" r="3.4"/>
			<circle class="st0" cx="77.7" cy="136.4" r="3.4"/>
			<path class="st0" d="M77.7,117h3.4c0,1.9-1.5,3.4-3.4,3.4s-3.4-1.5-3.4-3.4H77.7z"/>
			<path class="st0" d="M58.3,117h3.3c0,1.9-1.5,3.4-3.4,3.4s-3.4-1.5-3.4-3.4H58.3z"/>
			<path class="st0" d="M97.1,117h3.4c0,1.9-1.5,3.4-3.4,3.4s-3.4-1.5-3.4-3.4H97.1z"/>
			<g>
				<path class="st0" d="M97.1,233.5h-3.4c0-1.9,1.5-3.4,3.4-3.4s3.4,1.5,3.4,3.4H97.1z"/>
				<path class="st0" d="M77.7,233.5h-3.4c0-1.9,1.5-3.4,3.4-3.4s3.4,1.5,3.4,3.4H77.7z"/>
				<path class="st0" d="M38.8,233.5h-3.4c0-1.9,1.5-3.4,3.4-3.4s3.4,1.5,3.4,3.4H38.8z"/>
				<path class="st0" d="M58.3,233.5h-3.4c0-1.9,1.5-3.4,3.4-3.4s3.4,1.5,3.4,3.4H58.3z"/>
				<path class="st0" d="M19.5,233.5h-3.4c0-1.9,1.5-3.4,3.4-3.4s3.4,1.5,3.4,3.4H19.5z"/>
			</g>
			<g>
				<path class="st0" d="M19.5,234.9l-20.9-20.8l20.9-20.9l20.8,20.9L19.5,234.9z M1.5,214.1l18,18l18-18l-18-18L1.5,214.1z"/>
				<path class="st0" d="M19.5,196.1l-20.9-20.9l20.9-20.9l20.8,20.9L19.5,196.1z M1.5,175.2l18,18l18-18l-18-18L1.5,175.2z"/>
				<path class="st0" d="M19.5,157.3l-20.9-20.9l20.9-20.8l20.8,20.8L19.5,157.3z M1.5,136.4l18,18l18-18l-18-18L1.5,136.4z"/>
			</g>
			<g>
				<path class="st0" d="M58.3,234.9l-20.9-20.8l20.9-20.9l20.9,20.9L58.3,234.9z M40.3,214.1l18,18l18-18l-18-18L40.3,214.1z"/>
				<path class="st0" d="M58.3,196.1l-20.9-20.8l20.9-20.9l20.9,20.9L58.3,196.1z M40.3,175.2l18,18l18-18l-18-18L40.3,175.2z"/>
				<path class="st0" d="M58.3,157.3l-20.9-20.9l20.9-20.8l20.9,20.8L58.3,157.3z M40.3,136.4l18,18l18-18l-18-18L40.3,136.4z"/>
			</g>
			<g>
				<path class="st0" d="M97.1,234.9l-20.9-20.8l20.9-20.9l20.9,20.9L97.1,234.9z M79.1,214.1l18,18l18-18l-18-18L79.1,214.1z"/>
				<path class="st0" d="M97.1,196.1l-20.9-20.8l20.9-20.9l20.9,20.9L97.1,196.1z M79.1,175.2l18,18l18-18l-18-18L79.1,175.2z"/>
				<path class="st0" d="M97.1,157.3l-20.9-20.9l20.9-20.8l20.9,20.8L97.1,157.3z M79.1,136.4l18,18l18-18l-18-18L79.1,136.4z"/>
			</g>
		</g>
		<g>
			<path class="st0" d="M0,214.1v-3.4c1.9,0,3.4,1.5,3.4,3.4s-1.5,3.4-3.4,3.4V214.1z"/>
			<path class="st0" d="M0,194.7v-3.4c1.9,0,3.4,1.5,3.4,3.4s-1.5,3.4-3.4,3.4C0,198.1,0,194.7,0,194.7z"/>
			<path class="st0" d="M0,175.2v-3.4c1.9,0,3.4,1.5,3.4,3.4s-1.5,3.4-3.4,3.4V175.2z"/>
			<path class="st0" d="M0,155.8v-3.4c1.9,0,3.4,1.5,3.4,3.4s-1.5,3.4-3.4,3.4V155.8z"/>
			<path class="st0" d="M0,136.4V133c1.9,0,3.4,1.5,3.4,3.4s-1.5,3.4-3.4,3.4C0,139.8,0,136.4,0,136.4z"/>
		</g>
		<g>
			<path class="st0" d="M116.5,136.4v3.4c-1.9,0-3.4-1.5-3.4-3.4s1.5-3.4,3.4-3.4V136.4z"/>
			<path class="st0" d="M116.5,155.8v3.4c-1.9,0-3.4-1.5-3.4-3.4s1.5-3.4,3.4-3.4V155.8z"/>
			<path class="st0" d="M116.5,175.2v3.4c-1.9,0-3.4-1.5-3.4-3.4s1.5-3.4,3.4-3.4V175.2z"/>
			<path class="st0" d="M116.5,194.7v3.4c-1.9,0-3.4-1.5-3.4-3.4s1.5-3.4,3.4-3.4V194.7z"/>
			<path class="st0" d="M116.5,214.1v3.4c-1.9,0-3.4-1.5-3.4-3.4s1.5-3.4,3.4-3.4V214.1z"/>
		</g>
		<circle class="st0" cx="97.1" cy="194.7" r="3.4"/>
		<circle class="st0" cx="97.1" cy="155.8" r="3.4"/>
		<g>
			<path class="st0" d="M0.1,230.1c1.9,0,3.4,1.5,3.4,3.4H0.1V230.1z"/>
			<path class="st0" d="M3.5,116.9c0,1.9-1.5,3.4-3.4,3.4v-3.4H3.5z"/>
		</g>
		<g>
			<path class="st0" d="M116.5,120.3c-1.9,0-3.4-1.5-3.4-3.4h3.4V120.3z"/>
			<path class="st0" d="M113.1,233.5c0-1.9,1.5-3.4,3.4-3.4v3.4H113.1z"/>
		</g>
	</g>
	<g>
		<g>
			<path class="st0" d="M156.4,234.5h-40.9v-40.9h40.9V234.5z M117.6,232.5h36.8v-36.8h-36.8C117.6,195.7,117.6,232.5,117.6,232.5z"
				/>
			<path class="st0" d="M156.4,195.7h-40.9v-40.9h40.9V195.7z M117.6,193.7h36.8v-36.8h-36.8C117.6,156.9,117.6,193.7,117.6,193.7z"
				/>
			<path class="st0" d="M156.4,156.9h-40.9V116h40.9V156.9z M117.6,154.8h36.8V118h-36.8C117.6,118,117.6,154.8,117.6,154.8z"/>
			<path class="st0" d="M195.2,156.9h-40.9V116h40.9L195.2,156.9L195.2,156.9z M156.4,154.8h36.8V118h-36.8V154.8z"/>
			<path class="st0" d="M234.1,156.9h-40.9V116h40.9V156.9z M195.2,154.8H232V118h-36.8V154.8z"/>
			<g>
				<rect x="135" y="194.7" class="st0" width="2" height="38.8"/>
				<rect x="116.6" y="213.1" class="st0" width="38.8" height="2"/>
			</g>
			<g>
				<rect x="135" y="155.8" class="st0" width="2" height="38.8"/>
				<rect x="116.6" y="174.3" class="st0" width="38.8" height="2"/>
			</g>
			<g>
				<rect x="135" y="117" class="st0" width="2" height="38.8"/>
				<rect x="116.6" y="135.4" class="st0" width="38.8" height="2"/>
			</g>
			<g>
				<rect x="173.8" y="117" class="st0" width="2" height="38.8"/>
				<rect x="155.4" y="135.4" class="st0" width="38.8" height="2"/>
			</g>
			<g>
				<rect x="212.6" y="117" class="st0" width="2" height="38.8"/>
				<rect x="194.3" y="135.4" class="st0" width="38.8" height="2"/>
			</g>
			<circle class="st0" cx="136" cy="214.1" r="3.4"/>
			<circle class="st0" cx="136" cy="194.7" r="3.4"/>
			<circle class="st0" cx="174.8" cy="194.7" r="3.4"/>
			<circle class="st0" cx="136" cy="175.3" r="3.4"/>
			<circle class="st0" cx="136" cy="155.8" r="3.4"/>
			<circle class="st0" cx="174.8" cy="155.8" r="3.4"/>
			<circle class="st0" cx="136" cy="136.4" r="3.4"/>
			<circle class="st0" cx="174.8" cy="136.4" r="3.4"/>
			<g>
				<path class="st0" d="M195.2,195.7h-40.9v-40.9h40.9L195.2,195.7L195.2,195.7z M156.4,193.7h36.8v-36.8h-36.8V193.7z"/>
				<g>
					<rect x="173.8" y="155.8" class="st0" width="2" height="38.8"/>
					<rect x="155.4" y="174.3" class="st0" width="38.8" height="2"/>
				</g>
				<circle class="st0" cx="174.8" cy="175.3" r="3.4"/>
			</g>
			<g>
				<path class="st0" d="M234.1,195.7h-40.9v-40.9h40.9V195.7z M195.2,193.7H232v-36.8h-36.8V193.7z"/>
				<g>
					<rect x="212.6" y="155.8" class="st0" width="2" height="38.8"/>
					<rect x="194.3" y="174.3" class="st0" width="38.8" height="2"/>
				</g>
				<circle class="st0" cx="213.6" cy="175.3" r="3.4"/>
			</g>
			<g>
				<path class="st0" d="M195.2,234.5h-40.9v-40.9h40.9L195.2,234.5L195.2,234.5z M156.4,232.5h36.8v-36.8h-36.8V232.5z"/>
				<g>
					<rect x="173.8" y="194.7" class="st0" width="2" height="38.8"/>
					<rect x="155.4" y="213.1" class="st0" width="38.8" height="2"/>
				</g>
				<circle class="st0" cx="174.8" cy="214.1" r="3.4"/>
			</g>
			<g>
				<path class="st0" d="M234.1,234.5h-40.9v-40.9h40.9V234.5z M195.2,232.5H232v-36.8h-36.8V232.5z"/>
				<g>
					<rect x="212.6" y="194.7" class="st0" width="2" height="38.8"/>
					<rect x="194.3" y="213.1" class="st0" width="38.8" height="2"/>
				</g>
				<circle class="st0" cx="213.6" cy="214.1" r="3.4"/>
			</g>
			<circle class="st0" cx="213.6" cy="136.4" r="3.4"/>
			<path class="st0" d="M136,117h3.4c0,1.9-1.5,3.4-3.4,3.4s-3.4-1.5-3.4-3.4H136z"/>
			<circle class="st0" cx="155.4" cy="214.1" r="3.4"/>
			<circle class="st0" cx="155.4" cy="194.7" r="3.4"/>
			<circle class="st0" cx="155.4" cy="175.3" r="3.4"/>
			<circle class="st0" cx="155.4" cy="155.8" r="3.4"/>
			<circle class="st0" cx="155.4" cy="136.4" r="3.4"/>
			<path class="st0" d="M155.4,117h3.4c0,1.9-1.5,3.4-3.4,3.4s-3.4-1.5-3.4-3.4H155.4z"/>
			<circle class="st0" cx="194.3" cy="214.1" r="3.4"/>
			<circle class="st0" cx="194.3" cy="194.7" r="3.4"/>
			<circle class="st0" cx="194.3" cy="175.3" r="3.4"/>
			<circle class="st0" cx="194.3" cy="155.8" r="3.4"/>
			<circle class="st0" cx="194.3" cy="136.4" r="3.4"/>
			<path class="st0" d="M194.3,117h3.4c0,1.9-1.5,3.4-3.4,3.4s-3.4-1.5-3.4-3.4H194.3z"/>
			<path class="st0" d="M174.8,117h3.4c0,1.9-1.5,3.4-3.4,3.4s-3.4-1.5-3.4-3.4H174.8z"/>
			<path class="st0" d="M213.6,117h3.4c0,1.9-1.5,3.4-3.4,3.4s-3.4-1.5-3.4-3.4H213.6z"/>
			<g>
				<path class="st0" d="M213.6,233.5h-3.4c0-1.9,1.5-3.4,3.4-3.4s3.4,1.5,3.4,3.4H213.6z"/>
				<path class="st0" d="M194.2,233.5h-3.4c0-1.9,1.5-3.4,3.4-3.4s3.4,1.5,3.4,3.4H194.2z"/>
				<path class="st0" d="M155.3,233.5h-3.4c0-1.9,1.5-3.4,3.4-3.4s3.4,1.5,3.4,3.4H155.3z"/>
				<path class="st0" d="M174.8,233.5h-3.4c0-1.9,1.5-3.4,3.4-3.4s3.4,1.5,3.4,3.4H174.8z"/>
				<path class="st0" d="M136,233.5h-3.4c0-1.9,1.5-3.4,3.4-3.4s3.4,1.5,3.4,3.4H136z"/>
			</g>
			<g>
				<path class="st0" d="M136,235l-20.9-20.8l20.9-20.9l20.8,20.9L136,235z M118,214.1l18,18l18-18l-18-18L118,214.1z"/>
				<path class="st0" d="M136,196.1l-20.9-20.8l20.9-20.9l20.8,20.9L136,196.1z M118,175.3l18,18l18-18l-18-18L118,175.3z"/>
				<path class="st0" d="M136,157.3l-20.9-20.9l20.9-20.8l20.8,20.8L136,157.3z M118,136.4l18,18l18-18l-18-18L118,136.4z"/>
			</g>
			<g>
				<path class="st0" d="M174.8,235l-20.9-20.8l20.9-20.9l20.9,20.9L174.8,235z M156.8,214.1l18,18l18-18l-18-18L156.8,214.1z"/>
				<path class="st0" d="M174.8,196.1l-20.9-20.8l20.9-20.9l20.9,20.9L174.8,196.1z M156.8,175.3l18,18l18-18l-18-18L156.8,175.3z"
					/>
				<path class="st0" d="M174.8,157.3l-20.9-20.9l20.9-20.8l20.9,20.8L174.8,157.3z M156.8,136.4l18,18l18-18l-18-18L156.8,136.4z"
					/>
			</g>
			<g>
				<path class="st0" d="M213.6,235l-20.9-20.8l20.9-20.9l20.9,20.9L213.6,235z M195.7,214.1l18,18l18-18l-18-18L195.7,214.1z"/>
				<path class="st0" d="M213.6,196.1l-20.9-20.8l20.9-20.9l20.9,20.9L213.6,196.1z M195.7,175.3l18,18l18-18l-18-18L195.7,175.3z"
					/>
				<path class="st0" d="M213.6,157.3l-20.9-20.9l20.9-20.8l20.9,20.8L213.6,157.3z M195.7,136.4l18,18l18-18l-18-18L195.7,136.4z"
					/>
			</g>
		</g>
		<g>
			<path class="st0" d="M116.5,214.1v-3.4c1.9,0,3.4,1.5,3.4,3.4s-1.5,3.4-3.4,3.4V214.1z"/>
			<path class="st0" d="M116.5,194.7v-3.4c1.9,0,3.4,1.5,3.4,3.4s-1.5,3.4-3.4,3.4V194.7z"/>
			<path class="st0" d="M116.5,175.3v-3.4c1.9,0,3.4,1.5,3.4,3.4s-1.5,3.4-3.4,3.4V175.3z"/>
			<path class="st0" d="M116.5,155.8v-3.4c1.9,0,3.4,1.5,3.4,3.4s-1.5,3.4-3.4,3.4V155.8z"/>
			<path class="st0" d="M116.5,136.4V133c1.9,0,3.4,1.5,3.4,3.4s-1.5,3.4-3.4,3.4V136.4z"/>
		</g>
		<g>
			<path class="st0" d="M233,136.4v3.4c-1.9,0-3.4-1.5-3.4-3.4s1.5-3.4,3.4-3.4V136.4z"/>
			<path class="st0" d="M233,155.8v3.4c-1.9,0-3.4-1.5-3.4-3.4s1.5-3.4,3.4-3.4V155.8z"/>
			<path class="st0" d="M233,175.3v3.4c-1.9,0-3.4-1.5-3.4-3.4s1.5-3.4,3.4-3.4V175.3z"/>
			<path class="st0" d="M233,194.7v3.4c-1.9,0-3.4-1.5-3.4-3.4s1.5-3.4,3.4-3.4V194.7z"/>
			<path class="st0" d="M233,214.1v3.4c-1.9,0-3.4-1.5-3.4-3.4s1.5-3.4,3.4-3.4V214.1z"/>
		</g>
		<circle class="st0" cx="213.6" cy="194.7" r="3.4"/>
		<circle class="st0" cx="213.6" cy="155.8" r="3.4"/>
		<g>
			<path class="st0" d="M116.6,230.1c1.9,0,3.4,1.5,3.4,3.4h-3.4V230.1z"/>
			<path class="st0" d="M120,116.9c0,1.9-1.5,3.4-3.4,3.4v-3.4H120z"/>
		</g>
		<g>
			<path class="st0" d="M233,120.3c-1.9,0-3.4-1.5-3.4-3.4h3.4V120.3z"/>
			<path class="st0" d="M229.6,233.5c0-1.9,1.5-3.4,3.4-3.4v3.4H229.6z"/>
		</g>
	</g>
	<g>
		<g>
			<path class="st0" d="M272.9,117.6H232V76.7h40.9V117.6z M234.1,115.5h36.8V78.7h-36.8L234.1,115.5L234.1,115.5z"/>
			<path class="st0" d="M272.9,78.7H232V37.9h40.9V78.7z M234.1,76.7h36.8V39.9h-36.8L234.1,76.7L234.1,76.7z"/>
			<path class="st0" d="M272.9,39.9H232V-1h40.9V39.9z M234.1,37.9h36.8V1h-36.8L234.1,37.9L234.1,37.9z"/>
			<path class="st0" d="M311.7,39.9h-40.9V-1h40.9V39.9z M272.9,37.9h36.8V1h-36.8V37.9z"/>
			<path class="st0" d="M350.6,39.9h-40.9V-1h40.9V39.9z M311.7,37.9h36.9V1h-36.8v36.9C311.8,37.9,311.7,37.9,311.7,37.9z"/>
			<g>
				<rect x="251.5" y="77.7" class="st0" width="2" height="38.8"/>
				<rect x="233.1" y="96.1" class="st0" width="38.8" height="2"/>
			</g>
			<g>
				<rect x="251.5" y="38.9" class="st0" width="2" height="38.8"/>
				<rect x="233.1" y="57.3" class="st0" width="38.8" height="2"/>
			</g>
			<g>
				<rect x="251.5" class="st0" width="2" height="38.8"/>
				<rect x="233.1" y="18.4" class="st0" width="38.8" height="2"/>
			</g>
			<g>
				<rect x="290.3" class="st0" width="2" height="38.8"/>
				<rect x="271.9" y="18.4" class="st0" width="38.8" height="2"/>
			</g>
			<g>
				<rect x="329.1" class="st0" width="2" height="38.8"/>
				<rect x="310.8" y="18.4" class="st0" width="38.8" height="2"/>
			</g>
			<circle class="st0" cx="252.5" cy="97.1" r="3.4"/>
			<circle class="st0" cx="252.5" cy="77.7" r="3.4"/>
			<circle class="st0" cx="291.3" cy="77.7" r="3.4"/>
			<circle class="st0" cx="252.5" cy="58.3" r="3.4"/>
			<circle class="st0" cx="252.5" cy="38.9" r="3.4"/>
			<circle class="st0" cx="291.3" cy="38.9" r="3.4"/>
			<circle class="st0" cx="252.5" cy="19.4" r="3.4"/>
			<circle class="st0" cx="291.3" cy="19.4" r="3.4"/>
			<g>
				<path class="st0" d="M311.7,78.7h-40.9V37.9h40.9V78.7z M272.9,76.7h36.8V39.9h-36.8V76.7z"/>
				<g>
					<rect x="290.3" y="38.9" class="st0" width="2" height="38.8"/>
					<rect x="271.9" y="57.3" class="st0" width="38.8" height="2"/>
				</g>
				<circle class="st0" cx="291.3" cy="58.3" r="3.4"/>
			</g>
			<g>
				<path class="st0" d="M350.6,78.7h-40.9V37.9h40.9V78.7z M311.7,76.7h36.9V39.9h-36.8v36.8H311.7z"/>
				<g>
					<rect x="329.1" y="38.9" class="st0" width="2" height="38.8"/>
					<rect x="310.8" y="57.3" class="st0" width="38.8" height="2"/>
				</g>
				<circle class="st0" cx="330.1" cy="58.3" r="3.4"/>
			</g>
			<g>
				<path class="st0" d="M311.7,117.6h-40.9V76.7h40.9V117.6z M272.9,115.5h36.8V78.7h-36.8V115.5z"/>
				<g>
					<rect x="290.3" y="77.7" class="st0" width="2" height="38.8"/>
					<rect x="271.9" y="96.1" class="st0" width="38.8" height="2"/>
				</g>
				<circle class="st0" cx="291.3" cy="97.1" r="3.4"/>
			</g>
			<g>
				<path class="st0" d="M350.6,117.6h-40.9V76.7h40.9V117.6z M311.7,115.5h36.9V78.7h-36.8v36.8
					C311.8,115.5,311.7,115.5,311.7,115.5z"/>
				<g>
					<rect x="329.1" y="77.7" class="st0" width="2" height="38.8"/>
					<rect x="310.8" y="96.1" class="st0" width="38.8" height="2"/>
				</g>
				<circle class="st0" cx="330.1" cy="97.1" r="3.4"/>
			</g>
			<circle class="st0" cx="330.1" cy="19.4" r="3.4"/>
			<path class="st0" d="M252.5,0h3.4c0,1.9-1.5,3.4-3.4,3.4s-3.4-1.5-3.4-3.4H252.5z"/>
			<circle class="st0" cx="271.9" cy="97.1" r="3.4"/>
			<circle class="st0" cx="271.9" cy="77.7" r="3.4"/>
			<circle class="st0" cx="271.9" cy="58.3" r="3.4"/>
			<circle class="st0" cx="271.9" cy="38.9" r="3.4"/>
			<circle class="st0" cx="271.9" cy="19.4" r="3.4"/>
			<path class="st0" d="M271.9,0h3.4c0,1.9-1.5,3.4-3.4,3.4s-3.4-1.5-3.4-3.4H271.9z"/>
			<circle class="st0" cx="310.8" cy="97.1" r="3.4"/>
			<circle class="st0" cx="310.8" cy="77.7" r="3.4"/>
			<circle class="st0" cx="310.8" cy="58.3" r="3.4"/>
			<circle class="st0" cx="310.8" cy="38.9" r="3.4"/>
			<circle class="st0" cx="310.8" cy="19.4" r="3.4"/>
			<path class="st0" d="M310.8,0h3.4c0,1.9-1.5,3.4-3.4,3.4s-3.4-1.5-3.4-3.4H310.8z"/>
			<path class="st0" d="M291.3,0h3.4c0,1.9-1.5,3.4-3.4,3.4s-3.4-1.5-3.4-3.4H291.3z"/>
			<path class="st0" d="M330.1,0h3.4c0,1.9-1.5,3.4-3.4,3.4s-3.4-1.5-3.4-3.4H330.1z"/>
			<g>
				<path class="st0" d="M330.1,116.5h-3.4c0-1.9,1.5-3.4,3.4-3.4s3.4,1.5,3.4,3.4H330.1z"/>
				<path class="st0" d="M310.7,116.5h-3.4c0-1.9,1.5-3.4,3.4-3.4s3.4,1.5,3.4,3.4H310.7z"/>
				<path class="st0" d="M271.9,116.5h-3.4c0-1.9,1.5-3.4,3.4-3.4s3.4,1.5,3.4,3.4H271.9z"/>
				<path class="st0" d="M291.3,116.5h-3.4c0-1.9,1.5-3.4,3.4-3.4s3.4,1.5,3.4,3.4H291.3z"/>
				<path class="st0" d="M252.5,116.5h-3.4c0-1.9,1.5-3.4,3.4-3.4s3.4,1.5,3.4,3.4H252.5z"/>
			</g>
			<g>
				<path class="st0" d="M252.5,118l-20.9-20.9l20.9-20.9l20.8,20.9L252.5,118z M234.5,97.1l18,18l18-18l-18-18L234.5,97.1z"/>
				<path class="st0" d="M252.5,79.1l-20.9-20.8l20.9-20.9l20.8,20.9L252.5,79.1z M234.5,58.3l18,18l18-18l-18-18L234.5,58.3z"/>
				<path class="st0" d="M252.5,40.3l-20.9-20.9l20.9-20.8l20.8,20.8L252.5,40.3z M234.5,19.4l18,18l18-18l-18-18L234.5,19.4z"/>
			</g>
			<g>
				<path class="st0" d="M291.3,118l-20.9-20.8l20.9-20.9l20.9,20.9L291.3,118z M273.3,97.1l18,18l18-18l-18-18L273.3,97.1z"/>
				<path class="st0" d="M291.3,79.1l-20.9-20.8l20.9-20.9l20.9,20.9L291.3,79.1z M273.3,58.3l18,18l18-18l-18-18L273.3,58.3z"/>
				<path class="st0" d="M291.3,40.3l-20.9-20.9l20.9-20.8l20.9,20.8L291.3,40.3z M273.3,19.4l18,18l18-18l-18-18L273.3,19.4z"/>
			</g>
			<g>
				<path class="st0" d="M330.1,118l-20.9-20.8l20.9-20.9L351,97.2L330.1,118z M312.2,97.1l18,18l18-18l-18-18L312.2,97.1z"/>
				<path class="st0" d="M330.1,79.1l-20.9-20.8l20.9-20.9L351,58.3L330.1,79.1z M312.2,58.3l18,18l18-18l-18-18L312.2,58.3z"/>
				<path class="st0" d="M330.1,40.3l-20.9-20.9l20.9-20.8L351,19.4L330.1,40.3z M312.2,19.4l18,18l18-18l-18-18L312.2,19.4z"/>
			</g>
		</g>
		<g>
			<path class="st0" d="M233,97.1v-3.4c1.9,0,3.4,1.5,3.4,3.4s-1.5,3.4-3.4,3.4V97.1z"/>
			<path class="st0" d="M233,77.7v-3.4c1.9,0,3.4,1.5,3.4,3.4s-1.5,3.4-3.4,3.4V77.7z"/>
			<path class="st0" d="M233,58.3v-3.4c1.9,0,3.4,1.5,3.4,3.4s-1.5,3.4-3.4,3.4V58.3z"/>
			<path class="st0" d="M233,38.9v-3.4c1.9,0,3.4,1.5,3.4,3.4s-1.5,3.4-3.4,3.4V38.9z"/>
			<path class="st0" d="M233,19.4V16c1.9,0,3.4,1.5,3.4,3.4s-1.5,3.4-3.4,3.4V19.4z"/>
		</g>
		<g>
			<path class="st0" d="M349.5,19.4v3.4c-1.9,0-3.4-1.5-3.4-3.4s1.5-3.4,3.4-3.4V19.4z"/>
			<path class="st0" d="M349.5,38.9v3.4c-1.9,0-3.4-1.5-3.4-3.4s1.5-3.4,3.4-3.4V38.9z"/>
			<path class="st0" d="M349.5,58.3v3.4c-1.9,0-3.4-1.5-3.4-3.4s1.5-3.4,3.4-3.4V58.3z"/>
			<path class="st0" d="M349.5,77.7v3.4c-1.9,0-3.4-1.5-3.4-3.4s1.5-3.4,3.4-3.4V77.7z"/>
			<path class="st0" d="M349.5,97.1v3.4c-1.9,0-3.4-1.5-3.4-3.4s1.5-3.4,3.4-3.4V97.1z"/>
		</g>
		<circle class="st0" cx="330.1" cy="77.7" r="3.4"/>
		<circle class="st0" cx="330.1" cy="38.9" r="3.4"/>
		<g>
			<path class="st0" d="M233.1,113.2c1.9,0,3.4,1.5,3.4,3.4h-3.4V113.2z"/>
			<path class="st0" d="M236.5,0c0,1.9-1.5,3.4-3.4,3.4V0H236.5z"/>
		</g>
		<g>
			<path class="st0" d="M349.5,3.3c-1.9,0-3.4-1.5-3.4-3.4h3.4V3.3z"/>
			<path class="st0" d="M346.1,116.5c0-1.9,1.5-3.4,3.4-3.4v3.4H346.1z"/>
		</g>
	</g>
	<g>
		<g>
			<path class="st0" d="M389.4,117.6h-40.8V76.7h40.9v40.9H389.4z M350.6,115.6h36.8V78.7h-36.8V115.6z"/>
			<path class="st0" d="M389.4,78.7h-40.8V37.9h40.9v40.8H389.4z M350.6,76.7h36.8V39.9h-36.8V76.7z"/>
			<path class="st0" d="M389.4,39.9h-40.8V-1h40.9v40.9H389.4z M350.6,37.9h36.8V1.1h-36.8V37.9z"/>
			<path class="st0" d="M428.3,39.9h-40.9V-1h40.9V39.9z M389.4,37.9h36.8V1.1h-36.8V37.9z"/>
			<path class="st0" d="M467.1,39.9h-40.9V-1h40.9V39.9z M428.3,37.9h36.8V1.1h-36.8V37.9z"/>
			<g>
				<rect x="368" y="77.7" class="st0" width="2" height="38.8"/>
				<rect x="349.6" y="96.1" class="st0" width="38.8" height="2"/>
			</g>
			<g>
				<rect x="368" y="38.9" class="st0" width="2" height="38.8"/>
				<rect x="349.6" y="57.3" class="st0" width="38.8" height="2"/>
			</g>
			<g>
				<rect x="368" class="st0" width="2" height="38.8"/>
				<rect x="349.6" y="18.5" class="st0" width="38.8" height="2"/>
			</g>
			<g>
				<rect x="406.8" class="st0" width="2" height="38.8"/>
				<rect x="388.4" y="18.5" class="st0" width="38.8" height="2"/>
			</g>
			<g>
				<rect x="445.6" class="st0" width="2" height="38.8"/>
				<rect x="427.3" y="18.5" class="st0" width="38.8" height="2"/>
			</g>
			<circle class="st0" cx="369" cy="97.1" r="3.4"/>
			<circle class="st0" cx="369" cy="77.7" r="3.4"/>
			<circle class="st0" cx="407.8" cy="77.7" r="3.4"/>
			<circle class="st0" cx="369" cy="58.3" r="3.4"/>
			<circle class="st0" cx="369" cy="38.9" r="3.4"/>
			<circle class="st0" cx="407.8" cy="38.9" r="3.4"/>
			<circle class="st0" cx="369" cy="19.5" r="3.4"/>
			<circle class="st0" cx="407.8" cy="19.5" r="3.4"/>
			<g>
				<path class="st0" d="M428.3,78.7h-40.9V37.9h40.9V78.7z M389.4,76.7h36.8V39.9h-36.8V76.7z"/>
				<g>
					<rect x="406.8" y="38.9" class="st0" width="2" height="38.8"/>
					<rect x="388.4" y="57.3" class="st0" width="38.8" height="2"/>
				</g>
				<circle class="st0" cx="407.8" cy="58.3" r="3.4"/>
			</g>
			<g>
				<path class="st0" d="M467.1,78.7h-40.9V37.9h40.9V78.7z M428.3,76.7h36.8V39.9h-36.8V76.7z"/>
				<g>
					<rect x="445.6" y="38.9" class="st0" width="2" height="38.8"/>
					<rect x="427.3" y="57.3" class="st0" width="38.8" height="2"/>
				</g>
				<circle class="st0" cx="446.6" cy="58.3" r="3.4"/>
			</g>
			<g>
				<path class="st0" d="M428.3,117.6h-40.9V76.7h40.9V117.6z M389.4,115.6h36.8V78.7h-36.8V115.6z"/>
				<g>
					<rect x="406.8" y="77.7" class="st0" width="2" height="38.8"/>
					<rect x="388.4" y="96.1" class="st0" width="38.8" height="2"/>
				</g>
				<circle class="st0" cx="407.8" cy="97.2" r="3.4"/>
			</g>
			<g>
				<path class="st0" d="M467.1,117.6h-40.9V76.7h40.9V117.6z M428.3,115.6h36.8V78.7h-36.8V115.6z"/>
				<g>
					<rect x="445.6" y="77.7" class="st0" width="2" height="38.8"/>
					<rect x="427.3" y="96.1" class="st0" width="38.8" height="2"/>
				</g>
				<circle class="st0" cx="446.6" cy="97.2" r="3.4"/>
			</g>
			<circle class="st0" cx="446.6" cy="19.5" r="3.4"/>
			<path class="st0" d="M369,0h3.4c0,1.9-1.5,3.4-3.4,3.4s-3.4-1.5-3.4-3.4H369z"/>
			<circle class="st0" cx="388.4" cy="97.1" r="3.4"/>
			<circle class="st0" cx="388.4" cy="77.7" r="3.4"/>
			<circle class="st0" cx="388.4" cy="58.3" r="3.4"/>
			<circle class="st0" cx="388.4" cy="38.9" r="3.4"/>
			<circle class="st0" cx="388.4" cy="19.5" r="3.4"/>
			<path class="st0" d="M388.4,0h3.4c0,1.9-1.5,3.4-3.4,3.4S385,1.9,385,0H388.4z"/>
			<circle class="st0" cx="427.3" cy="97.1" r="3.4"/>
			<circle class="st0" cx="427.3" cy="77.7" r="3.4"/>
			<circle class="st0" cx="427.3" cy="58.3" r="3.4"/>
			<circle class="st0" cx="427.3" cy="38.9" r="3.4"/>
			<circle class="st0" cx="427.3" cy="19.5" r="3.4"/>
			<path class="st0" d="M427.3,0h3.4c0,1.9-1.5,3.4-3.4,3.4s-3.4-1.5-3.4-3.4H427.3z"/>
			<path class="st0" d="M407.8,0h3.4c0,1.9-1.5,3.4-3.4,3.4s-3.4-1.5-3.4-3.4H407.8z"/>
			<path class="st0" d="M446.7,0h3.4c0,1.9-1.5,3.4-3.4,3.4s-3.4-1.5-3.4-3.4C443.3,0,446.7,0,446.7,0z"/>
			<g>
				<path class="st0" d="M446.7,116.6h-3.4c0-1.9,1.5-3.4,3.4-3.4s3.4,1.5,3.4,3.4H446.7z"/>
				<path class="st0" d="M427.2,116.6h-3.4c0-1.9,1.5-3.4,3.4-3.4s3.4,1.5,3.4,3.4H427.2z"/>
				<path class="st0" d="M388.4,116.6H385c0-1.9,1.5-3.4,3.4-3.4s3.4,1.5,3.4,3.4H388.4z"/>
				<path class="st0" d="M407.9,116.6h-3.4c0-1.9,1.5-3.4,3.4-3.4s3.4,1.5,3.4,3.4H407.9z"/>
				<path class="st0" d="M369,116.6h-3.4c0-1.9,1.5-3.4,3.4-3.4s3.4,1.5,3.4,3.4H369z"/>
			</g>
			<g>
				<path class="st0" d="M369,118l-20.9-20.8L369,76.3l20.8,20.9L369,118z M351,97.1l18,18l18-18l-18-18L351,97.1z"/>
				<path class="st0" d="M369,79.2l-20.9-20.8L369,37.5l20.8,20.9L369,79.2z M351,58.3l18,18l18-18l-18-18L351,58.3z"/>
				<path class="st0" d="M369,40.3l-20.9-20.9L369-1.4l20.8,20.8L369,40.3z M351,19.5l18,18l18-18l-18-18L351,19.5z"/>
			</g>
			<g>
				<path class="st0" d="M407.8,118l-20.9-20.8l20.9-20.9l20.8,20.8L407.8,118z M389.8,97.1l18,18l18-18l-18-18L389.8,97.1z"/>
				<path class="st0" d="M407.8,79.2l-20.9-20.8l20.9-20.9l20.8,20.8L407.8,79.2z M389.8,58.3l18,18l18-18l-18-18L389.8,58.3z"/>
				<path class="st0" d="M407.8,40.3l-20.9-20.9l20.9-20.8l20.8,20.9L407.8,40.3z M389.8,19.5l18,18l18-18l-18-18L389.8,19.5z"/>
			</g>
			<g>
				<path class="st0" d="M446.7,118l-20.9-20.8l20.9-20.9l20.9,20.9L446.7,118z M428.7,97.1l18,18l18-18l-18-18L428.7,97.1z"/>
				<path class="st0" d="M446.7,79.2l-20.9-20.8l20.9-20.9l20.9,20.9L446.7,79.2z M428.7,58.3l18,18l18-18l-18-18L428.7,58.3z"/>
				<path class="st0" d="M446.7,40.3l-20.9-20.9l20.9-20.8l20.9,20.8L446.7,40.3z M428.7,19.5l18,18l18-18l-18-18L428.7,19.5z"/>
			</g>
		</g>
		<g>
			<path class="st0" d="M349.5,97.1v-3.4c1.9,0,3.4,1.5,3.4,3.4s-1.5,3.4-3.4,3.4V97.1z"/>
			<path class="st0" d="M349.5,77.7v-3.4c1.9,0,3.4,1.5,3.4,3.4s-1.5,3.4-3.4,3.4V77.7z"/>
			<path class="st0" d="M349.5,58.3v-3.4c1.9,0,3.4,1.5,3.4,3.4s-1.5,3.4-3.4,3.4V58.3z"/>
			<path class="st0" d="M349.5,38.9v-3.4c1.9,0,3.4,1.5,3.4,3.4s-1.5,3.4-3.4,3.4V38.9z"/>
			<path class="st0" d="M349.5,19.5v-3.4c1.9,0,3.4,1.5,3.4,3.4s-1.5,3.4-3.4,3.4V19.5z"/>
		</g>
		<g>
			<path class="st0" d="M466,19.5v3.4c-1.9,0-3.4-1.5-3.4-3.4s1.5-3.4,3.4-3.4V19.5z"/>
			<path class="st0" d="M466,38.9v3.4c-1.9,0-3.4-1.5-3.4-3.4s1.5-3.4,3.4-3.4V38.9z"/>
			<path class="st0" d="M466,58.3v3.4c-1.9,0-3.4-1.5-3.4-3.4s1.5-3.4,3.4-3.4V58.3z"/>
			<path class="st0" d="M466,77.7v3.4c-1.9,0-3.4-1.5-3.4-3.4s1.5-3.4,3.4-3.4V77.7z"/>
			<path class="st0" d="M466,97.1v3.4c-1.9,0-3.4-1.5-3.4-3.4s1.5-3.4,3.4-3.4V97.1z"/>
		</g>
		<circle class="st0" cx="446.6" cy="77.7" r="3.4"/>
		<circle class="st0" cx="446.6" cy="38.9" r="3.4"/>
		<g>
			<path class="st0" d="M349.6,113.2c1.9,0,3.4,1.5,3.4,3.4h-3.4V113.2z"/>
			<path class="st0" d="M353,0c0,1.9-1.5,3.4-3.4,3.4V0H353z"/>
		</g>
		<g>
			<path class="st0" d="M466,3.4c-1.9,0-3.4-1.5-3.4-3.4h3.4V3.4z"/>
			<path class="st0" d="M462.7,116.6c0-1.9,1.5-3.4,3.4-3.4v3.4H462.7z"/>
		</g>
	</g>
	<g>
		<g>
			<path class="st0" d="M272.9,234.5H232v-40.9h40.9V234.5z M234.1,232.5h36.8v-36.8h-36.8L234.1,232.5L234.1,232.5z"/>
			<path class="st0" d="M272.9,195.7H232v-40.9h40.9V195.7z M234.1,193.7h36.8v-36.8h-36.8L234.1,193.7L234.1,193.7z"/>
			<path class="st0" d="M272.9,156.8H232v-40.9h40.9V156.8z M234.1,154.8h36.8V118h-36.8L234.1,154.8L234.1,154.8z"/>
			<path class="st0" d="M311.7,156.8h-40.9v-40.9h40.9V156.8z M272.9,154.8h36.8V118h-36.8V154.8z"/>
			<path class="st0" d="M350.6,156.8h-40.9v-40.9h40.9V156.8z M311.7,154.8h36.9V118h-36.8v36.8H311.7z"/>
			<g>
				<rect x="251.5" y="194.7" class="st0" width="2" height="38.8"/>
				<rect x="233.1" y="213.1" class="st0" width="38.8" height="2"/>
			</g>
			<g>
				<rect x="251.5" y="155.8" class="st0" width="2" height="38.8"/>
				<rect x="233.1" y="174.2" class="st0" width="38.8" height="2"/>
			</g>
			<g>
				<rect x="251.5" y="117" class="st0" width="2" height="38.8"/>
				<rect x="233.1" y="135.4" class="st0" width="38.8" height="2"/>
			</g>
			<g>
				<rect x="290.3" y="117" class="st0" width="2" height="38.8"/>
				<rect x="271.9" y="135.4" class="st0" width="38.8" height="2"/>
			</g>
			<g>
				<rect x="329.1" y="117" class="st0" width="2" height="38.8"/>
				<rect x="310.8" y="135.4" class="st0" width="38.8" height="2"/>
			</g>
			<circle class="st0" cx="252.5" cy="214.1" r="3.4"/>
			<circle class="st0" cx="252.5" cy="194.7" r="3.4"/>
			<circle class="st0" cx="291.3" cy="194.7" r="3.4"/>
			<circle class="st0" cx="252.5" cy="175.2" r="3.4"/>
			<circle class="st0" cx="252.5" cy="155.8" r="3.4"/>
			<circle class="st0" cx="291.3" cy="155.8" r="3.4"/>
			<circle class="st0" cx="252.5" cy="136.4" r="3.4"/>
			<circle class="st0" cx="291.3" cy="136.4" r="3.4"/>
			<g>
				<path class="st0" d="M311.7,195.7h-40.9v-40.9h40.9V195.7z M272.9,193.7h36.8v-36.8h-36.8V193.7z"/>
				<g>
					<rect x="290.3" y="155.8" class="st0" width="2" height="38.8"/>
					<rect x="271.9" y="174.2" class="st0" width="38.8" height="2"/>
				</g>
				<circle class="st0" cx="291.3" cy="175.2" r="3.4"/>
			</g>
			<g>
				<path class="st0" d="M350.6,195.7h-40.9v-40.9h40.9V195.7z M311.7,193.7h36.9v-36.8h-36.8v36.8H311.7z"/>
				<g>
					<rect x="329.1" y="155.8" class="st0" width="2" height="38.8"/>
					<rect x="310.8" y="174.2" class="st0" width="38.8" height="2"/>
				</g>
				<circle class="st0" cx="330.1" cy="175.2" r="3.4"/>
			</g>
			<g>
				<path class="st0" d="M311.7,234.5h-40.9v-40.9h40.9V234.5z M272.9,232.5h36.8v-36.8h-36.8V232.5z"/>
				<g>
					<rect x="290.3" y="194.7" class="st0" width="2" height="38.8"/>
					<rect x="271.9" y="213.1" class="st0" width="38.8" height="2"/>
				</g>
				<circle class="st0" cx="291.3" cy="214.1" r="3.4"/>
			</g>
			<g>
				<path class="st0" d="M350.6,234.5h-40.9v-40.9h40.9V234.5z M311.7,232.5h36.9v-36.8h-36.8v36.8H311.7z"/>
				<g>
					<rect x="329.1" y="194.7" class="st0" width="2" height="38.8"/>
					<rect x="310.8" y="213.1" class="st0" width="38.8" height="2"/>
				</g>
				<circle class="st0" cx="330.1" cy="214.1" r="3.4"/>
			</g>
			<circle class="st0" cx="330.1" cy="136.4" r="3.4"/>
			<path class="st0" d="M252.5,117h3.4c0,1.9-1.5,3.4-3.4,3.4s-3.4-1.5-3.4-3.4H252.5z"/>
			<circle class="st0" cx="271.9" cy="214.1" r="3.4"/>
			<circle class="st0" cx="271.9" cy="194.7" r="3.4"/>
			<circle class="st0" cx="271.9" cy="175.2" r="3.4"/>
			<circle class="st0" cx="271.9" cy="155.8" r="3.4"/>
			<circle class="st0" cx="271.9" cy="136.4" r="3.4"/>
			<path class="st0" d="M271.9,117h3.4c0,1.9-1.5,3.4-3.4,3.4s-3.4-1.5-3.4-3.4H271.9z"/>
			<circle class="st0" cx="310.8" cy="214.1" r="3.4"/>
			<circle class="st0" cx="310.8" cy="194.7" r="3.4"/>
			<circle class="st0" cx="310.8" cy="175.2" r="3.4"/>
			<circle class="st0" cx="310.8" cy="155.8" r="3.4"/>
			<circle class="st0" cx="310.8" cy="136.4" r="3.4"/>
			<path class="st0" d="M310.8,117h3.4c0,1.9-1.5,3.4-3.4,3.4s-3.4-1.5-3.4-3.4H310.8z"/>
			<path class="st0" d="M291.3,117h3.4c0,1.9-1.5,3.4-3.4,3.4s-3.4-1.5-3.4-3.4H291.3z"/>
			<path class="st0" d="M330.1,117h3.4c0,1.9-1.5,3.4-3.4,3.4s-3.4-1.5-3.4-3.4H330.1z"/>
			<g>
				<path class="st0" d="M330.1,233.5h-3.4c0-1.9,1.5-3.4,3.4-3.4s3.4,1.5,3.4,3.4H330.1z"/>
				<path class="st0" d="M310.7,233.5h-3.4c0-1.9,1.5-3.4,3.4-3.4s3.4,1.5,3.4,3.4H310.7z"/>
				<path class="st0" d="M271.9,233.5h-3.4c0-1.9,1.5-3.4,3.4-3.4s3.4,1.5,3.4,3.4H271.9z"/>
				<path class="st0" d="M291.3,233.5h-3.4c0-1.9,1.5-3.4,3.4-3.4s3.4,1.5,3.4,3.4H291.3z"/>
				<path class="st0" d="M252.5,233.5h-3.4c0-1.9,1.5-3.4,3.4-3.4s3.4,1.5,3.4,3.4H252.5z"/>
			</g>
			<g>
				<path class="st0" d="M252.5,234.9l-20.9-20.8l20.9-20.9l20.8,20.9L252.5,234.9z M234.5,214.1l18,18l18-18l-18-18L234.5,214.1z"
					/>
				<path class="st0" d="M252.5,196.1l-20.9-20.9l20.9-20.9l20.8,20.9L252.5,196.1z M234.5,175.2l18,18l18-18l-18-18L234.5,175.2z"
					/>
				<path class="st0" d="M252.5,157.3l-20.9-20.9l20.9-20.8l20.8,20.8L252.5,157.3z M234.5,136.4l18,18l18-18l-18-18L234.5,136.4z"
					/>
			</g>
			<g>
				<path class="st0" d="M291.3,234.9l-20.9-20.8l20.9-20.9l20.9,20.9L291.3,234.9z M273.3,214.1l18,18l18-18l-18-18L273.3,214.1z"
					/>
				<path class="st0" d="M291.3,196.1l-20.9-20.8l20.9-20.9l20.9,20.9L291.3,196.1z M273.3,175.2l18,18l18-18l-18-18L273.3,175.2z"
					/>
				<path class="st0" d="M291.3,157.3l-20.9-20.9l20.9-20.8l20.9,20.8L291.3,157.3z M273.3,136.4l18,18l18-18l-18-18L273.3,136.4z"
					/>
			</g>
			<g>
				<path class="st0" d="M330.1,234.9l-20.9-20.8l20.9-20.9l20.9,20.9L330.1,234.9z M312.2,214.1l18,18l18-18l-18-18L312.2,214.1z"
					/>
				<path class="st0" d="M330.1,196.1l-20.9-20.8l20.9-20.9l20.9,20.9L330.1,196.1z M312.2,175.2l18,18l18-18l-18-18L312.2,175.2z"
					/>
				<path class="st0" d="M330.1,157.3l-20.9-20.9l20.9-20.8l20.9,20.8L330.1,157.3z M312.2,136.4l18,18l18-18l-18-18L312.2,136.4z"
					/>
			</g>
		</g>
		<g>
			<path class="st0" d="M233,214.1v-3.4c1.9,0,3.4,1.5,3.4,3.4s-1.5,3.4-3.4,3.4V214.1z"/>
			<path class="st0" d="M233,194.7v-3.4c1.9,0,3.4,1.5,3.4,3.4s-1.5,3.4-3.4,3.4V194.7z"/>
			<path class="st0" d="M233,175.2v-3.4c1.9,0,3.4,1.5,3.4,3.4s-1.5,3.4-3.4,3.4V175.2z"/>
			<path class="st0" d="M233,155.8v-3.4c1.9,0,3.4,1.5,3.4,3.4s-1.5,3.4-3.4,3.4V155.8z"/>
			<path class="st0" d="M233,136.4V133c1.9,0,3.4,1.5,3.4,3.4s-1.5,3.4-3.4,3.4V136.4z"/>
		</g>
		<g>
			<path class="st0" d="M349.5,136.4v3.4c-1.9,0-3.4-1.5-3.4-3.4s1.5-3.4,3.4-3.4V136.4z"/>
			<path class="st0" d="M349.5,155.8v3.4c-1.9,0-3.4-1.5-3.4-3.4s1.5-3.4,3.4-3.4V155.8z"/>
			<path class="st0" d="M349.5,175.2v3.4c-1.9,0-3.4-1.5-3.4-3.4s1.5-3.4,3.4-3.4V175.2z"/>
			<path class="st0" d="M349.5,194.7v3.4c-1.9,0-3.4-1.5-3.4-3.4s1.5-3.4,3.4-3.4V194.7z"/>
			<path class="st0" d="M349.5,214.1v3.4c-1.9,0-3.4-1.5-3.4-3.4s1.5-3.4,3.4-3.4V214.1z"/>
		</g>
		<circle class="st0" cx="330.1" cy="194.7" r="3.4"/>
		<circle class="st0" cx="330.1" cy="155.8" r="3.4"/>
		<g>
			<path class="st0" d="M233.1,230.1c1.9,0,3.4,1.5,3.4,3.4h-3.4V230.1z"/>
			<path class="st0" d="M236.5,116.9c0,1.9-1.5,3.4-3.4,3.4v-3.4H236.5z"/>
		</g>
		<g>
			<path class="st0" d="M349.5,120.3c-1.9,0-3.4-1.5-3.4-3.4h3.4V120.3z"/>
			<path class="st0" d="M346.1,233.5c0-1.9,1.5-3.4,3.4-3.4v3.4H346.1z"/>
		</g>
	</g>
	<g>
		<g>
			<path class="st0" d="M389.4,234.5h-40.8v-40.9h40.9v40.9H389.4z M350.6,232.5h36.8v-36.8h-36.8V232.5z"/>
			<path class="st0" d="M389.4,195.7h-40.8v-40.9h40.9v40.9L389.4,195.7L389.4,195.7z M350.6,193.7h36.8v-36.8h-36.8V193.7z"/>
			<path class="st0" d="M389.4,156.9h-40.8V116h40.9v40.9H389.4z M350.6,154.8h36.8V118h-36.8V154.8z"/>
			<path class="st0" d="M428.3,156.9h-40.9V116h40.9V156.9z M389.4,154.8h36.8V118h-36.8V154.8z"/>
			<path class="st0" d="M467.1,156.9h-40.9V116h40.9V156.9z M428.3,154.8h36.8V118h-36.8V154.8z"/>
			<g>
				<rect x="368" y="194.7" class="st0" width="2" height="38.8"/>
				<rect x="349.6" y="213.1" class="st0" width="38.8" height="2"/>
			</g>
			<g>
				<rect x="368" y="155.8" class="st0" width="2" height="38.8"/>
				<rect x="349.6" y="174.3" class="st0" width="38.8" height="2"/>
			</g>
			<g>
				<rect x="368" y="117" class="st0" width="2" height="38.8"/>
				<rect x="349.6" y="135.4" class="st0" width="38.8" height="2"/>
			</g>
			<g>
				<rect x="406.8" y="117" class="st0" width="2" height="38.8"/>
				<rect x="388.4" y="135.4" class="st0" width="38.8" height="2"/>
			</g>
			<g>
				<rect x="445.6" y="117" class="st0" width="2" height="38.8"/>
				<rect x="427.3" y="135.4" class="st0" width="38.8" height="2"/>
			</g>
			<circle class="st0" cx="369" cy="214.1" r="3.4"/>
			<circle class="st0" cx="369" cy="194.7" r="3.4"/>
			<circle class="st0" cx="407.8" cy="194.7" r="3.4"/>
			<circle class="st0" cx="369" cy="175.3" r="3.4"/>
			<circle class="st0" cx="369" cy="155.8" r="3.4"/>
			<circle class="st0" cx="407.8" cy="155.8" r="3.4"/>
			<circle class="st0" cx="369" cy="136.4" r="3.4"/>
			<circle class="st0" cx="407.8" cy="136.4" r="3.4"/>
			<g>
				<path class="st0" d="M428.3,195.7h-40.9v-40.9h40.9V195.7z M389.4,193.7h36.8v-36.8h-36.8V193.7z"/>
				<g>
					<rect x="406.8" y="155.8" class="st0" width="2" height="38.8"/>
					<rect x="388.4" y="174.3" class="st0" width="38.8" height="2"/>
				</g>
				<circle class="st0" cx="407.8" cy="175.3" r="3.4"/>
			</g>
			<g>
				<path class="st0" d="M467.1,195.7h-40.9v-40.9h40.9V195.7z M428.3,193.7h36.8v-36.8h-36.8V193.7z"/>
				<g>
					<rect x="445.6" y="155.8" class="st0" width="2" height="38.8"/>
					<rect x="427.3" y="174.3" class="st0" width="38.8" height="2"/>
				</g>
				<circle class="st0" cx="446.6" cy="175.3" r="3.4"/>
			</g>
			<g>
				<path class="st0" d="M428.3,234.5h-40.9v-40.9h40.9V234.5z M389.4,232.5h36.8v-36.8h-36.8V232.5z"/>
				<g>
					<rect x="406.8" y="194.7" class="st0" width="2" height="38.8"/>
					<rect x="388.4" y="213.1" class="st0" width="38.8" height="2"/>
				</g>
				<circle class="st0" cx="407.8" cy="214.1" r="3.4"/>
			</g>
			<g>
				<path class="st0" d="M467.1,234.5h-40.9v-40.9h40.9V234.5z M428.3,232.5h36.8v-36.8h-36.8V232.5z"/>
				<g>
					<rect x="445.6" y="194.7" class="st0" width="2" height="38.8"/>
					<rect x="427.3" y="213.1" class="st0" width="38.8" height="2"/>
				</g>
				<circle class="st0" cx="446.6" cy="214.1" r="3.4"/>
			</g>
			<circle class="st0" cx="446.6" cy="136.4" r="3.4"/>
			<path class="st0" d="M369,117h3.4c0,1.9-1.5,3.4-3.4,3.4s-3.4-1.5-3.4-3.4H369z"/>
			<circle class="st0" cx="388.4" cy="214.1" r="3.4"/>
			<circle class="st0" cx="388.4" cy="194.7" r="3.4"/>
			<circle class="st0" cx="388.4" cy="175.3" r="3.4"/>
			<circle class="st0" cx="388.4" cy="155.8" r="3.4"/>
			<circle class="st0" cx="388.4" cy="136.4" r="3.4"/>
			<path class="st0" d="M388.4,117h3.4c0,1.9-1.5,3.4-3.4,3.4s-3.4-1.5-3.4-3.4H388.4z"/>
			<circle class="st0" cx="427.3" cy="214.1" r="3.4"/>
			<circle class="st0" cx="427.3" cy="194.7" r="3.4"/>
			<circle class="st0" cx="427.3" cy="175.3" r="3.4"/>
			<circle class="st0" cx="427.3" cy="155.8" r="3.4"/>
			<circle class="st0" cx="427.3" cy="136.4" r="3.4"/>
			<path class="st0" d="M427.3,117h3.4c0,1.9-1.5,3.4-3.4,3.4s-3.4-1.5-3.4-3.4H427.3z"/>
			<path class="st0" d="M407.8,117h3.4c0,1.9-1.5,3.4-3.4,3.4s-3.4-1.5-3.4-3.4H407.8z"/>
			<path class="st0" d="M446.7,117h3.4c0,1.9-1.5,3.4-3.4,3.4s-3.4-1.5-3.4-3.4H446.7z"/>
			<g>
				<path class="st0" d="M446.7,233.5h-3.4c0-1.9,1.5-3.4,3.4-3.4s3.4,1.5,3.4,3.4H446.7z"/>
				<path class="st0" d="M427.2,233.5h-3.4c0-1.9,1.5-3.4,3.4-3.4s3.4,1.5,3.4,3.4H427.2z"/>
				<path class="st0" d="M388.4,233.5H385c0-1.9,1.5-3.4,3.4-3.4s3.4,1.5,3.4,3.4H388.4z"/>
				<path class="st0" d="M407.9,233.5h-3.4c0-1.9,1.5-3.4,3.4-3.4s3.4,1.5,3.4,3.4H407.9z"/>
				<path class="st0" d="M369,233.5h-3.4c0-1.9,1.5-3.4,3.4-3.4s3.4,1.5,3.4,3.4H369z"/>
			</g>
			<g>
				<path class="st0" d="M369,235l-20.9-20.8l20.9-20.9l20.8,20.9L369,235z M351,214.1l18,18l18-18l-18-18L351,214.1z"/>
				<path class="st0" d="M369,196.1l-20.9-20.8l20.9-20.9l20.8,20.9L369,196.1z M351,175.3l18,18l18-18l-18-18L351,175.3z"/>
				<path class="st0" d="M369,157.3l-20.9-20.9l20.9-20.8l20.8,20.8L369,157.3z M351,136.4l18,18l18-18l-18-18L351,136.4z"/>
			</g>
			<g>
				<path class="st0" d="M407.8,235l-20.9-20.8l20.9-20.9l20.9,20.9L407.8,235z M389.8,214.1l18,18l18-18l-18-18L389.8,214.1z"/>
				<path class="st0" d="M407.8,196.1l-20.9-20.8l20.9-20.9l20.9,20.9L407.8,196.1z M389.8,175.3l18,18l18-18l-18-18L389.8,175.3z"
					/>
				<path class="st0" d="M407.8,157.3l-20.9-20.9l20.9-20.8l20.9,20.8L407.8,157.3z M389.8,136.4l18,18l18-18l-18-18L389.8,136.4z"
					/>
			</g>
			<g>
				<path class="st0" d="M446.7,235l-20.9-20.8l20.9-20.9l20.9,20.9L446.7,235z M428.7,214.1l18,18l18-18l-18-18L428.7,214.1z"/>
				<path class="st0" d="M446.7,196.1l-20.9-20.8l20.9-20.9l20.9,20.9L446.7,196.1z M428.7,175.3l18,18l18-18l-18-18L428.7,175.3z"
					/>
				<path class="st0" d="M446.7,157.3l-20.9-20.9l20.9-20.8l20.9,20.8L446.7,157.3z M428.7,136.4l18,18l18-18l-18-18L428.7,136.4z"
					/>
			</g>
		</g>
		<g>
			<path class="st0" d="M349.5,214.1v-3.4c1.9,0,3.4,1.5,3.4,3.4s-1.5,3.4-3.4,3.4V214.1z"/>
			<path class="st0" d="M349.5,194.7v-3.4c1.9,0,3.4,1.5,3.4,3.4s-1.5,3.4-3.4,3.4V194.7z"/>
			<path class="st0" d="M349.5,175.3v-3.4c1.9,0,3.4,1.5,3.4,3.4s-1.5,3.4-3.4,3.4V175.3z"/>
			<path class="st0" d="M349.5,155.8v-3.4c1.9,0,3.4,1.5,3.4,3.4s-1.5,3.4-3.4,3.4V155.8z"/>
			<path class="st0" d="M349.5,136.4V133c1.9,0,3.4,1.5,3.4,3.4s-1.5,3.4-3.4,3.4V136.4z"/>
		</g>
		<g>
			<path class="st0" d="M466,136.4v3.4c-1.9,0-3.4-1.5-3.4-3.4s1.5-3.4,3.4-3.4V136.4z"/>
			<path class="st0" d="M466,155.8v3.4c-1.9,0-3.4-1.5-3.4-3.4s1.5-3.4,3.4-3.4V155.8z"/>
			<path class="st0" d="M466,175.3v3.4c-1.9,0-3.4-1.5-3.4-3.4s1.5-3.4,3.4-3.4V175.3z"/>
			<path class="st0" d="M466,194.7v3.4c-1.9,0-3.4-1.5-3.4-3.4s1.5-3.4,3.4-3.4V194.7z"/>
			<path class="st0" d="M466,214.1v3.4c-1.9,0-3.4-1.5-3.4-3.4s1.5-3.4,3.4-3.4V214.1z"/>
		</g>
		<circle class="st0" cx="446.6" cy="194.7" r="3.4"/>
		<circle class="st0" cx="446.6" cy="155.8" r="3.4"/>
		<g>
			<path class="st0" d="M349.6,230.1c1.9,0,3.4,1.5,3.4,3.4h-3.4V230.1z"/>
			<path class="st0" d="M353,116.9c0,1.9-1.5,3.4-3.4,3.4v-3.4H353z"/>
		</g>
		<g>
			<path class="st0" d="M466,120.3c-1.9,0-3.4-1.5-3.4-3.4h3.4V120.3z"/>
			<path class="st0" d="M462.7,233.5c0-1.9,1.5-3.4,3.4-3.4v3.4H462.7z"/>
		</g>
	</g>
</g>
</svg>
