<?xml version="1.0" encoding="utf-8"?>
<!-- Generator: Adobe Illustrator 22.1.0, SVG Export Plug-In . SVG Version: 6.00 Build 0)  -->
<svg version="1.1" id="Capa_1" xmlns="http://www.w3.org/2000/svg" xmlns:xlink="http://www.w3.org/1999/xlink" x="0px" y="0px"
	 viewBox="0 0 208 43.2" style="enable-background:new 0 0 208 43.2;" xml:space="preserve">
<style type="text/css">
	.st0{fill:#FDD836;}
	.st1{fill:#03A9F4;}
	.st2{fill:#001F5B;}
</style>
<g id="XMLID_5705_">
	<g id="XMLID_6940_">
		<polygon id="XMLID_7146_" class="st0" points="18,7.2 10.8,7.2 0,28.8 7.2,43.2 14.4,28.8 28.8,28.8 		"/>
		<polygon id="XMLID_6943_" class="st1" points="43.2,28.8 36,43.2 14.4,0 28.8,0 		"/>
	</g>
	<g>
		<path class="st1" d="M63.4,19.4c0,0.8-0.1,1.4-0.4,2c-0.3,0.5-0.7,1-1.1,1.3s-1,0.6-1.6,0.7c-0.6,0.1-1.3,0.2-2,0.2
			c-0.2,0-0.5,0-0.8,0c-0.3,0-0.6,0-0.8,0v4.6c0,0.1,0,0.2-0.1,0.2s-0.1,0.1-0.2,0.1h-1.8c-0.1,0-0.2,0-0.2-0.1s-0.1-0.2-0.1-0.2
			V15.9c0-0.2,0.1-0.3,0.2-0.4c0.1-0.1,0.2-0.1,0.4-0.2c0.5-0.1,1-0.1,1.6-0.2s1.2-0.1,1.9-0.1c0.7,0,1.3,0.1,2,0.2
			c0.6,0.1,1.2,0.4,1.6,0.7c0.5,0.3,0.8,0.7,1.1,1.3c0.3,0.5,0.4,1.2,0.4,2V19.4z M60.9,19.3c0-0.7-0.2-1.3-0.7-1.6
			c-0.4-0.3-1.1-0.5-2-0.5c-0.1,0-0.2,0-0.4,0c-0.1,0-0.3,0-0.5,0c-0.2,0-0.3,0-0.4,0c-0.1,0-0.2,0-0.3,0v4.2c0.1,0,0.2,0,0.3,0
			c0.1,0,0.3,0,0.5,0s0.3,0,0.5,0c0.1,0,0.3,0,0.3,0c1,0,1.6-0.2,2-0.5c0.4-0.4,0.6-0.9,0.6-1.6V19.3z"/>
		<path class="st1" d="M74.9,28.3c0,0.1-0.1,0.2-0.2,0.2h-2.2c-0.1,0-0.2,0-0.2-0.1c0-0.1-0.1-0.2-0.1-0.2l-2.6-4.7h-0.2
			c-0.2,0-0.5,0-0.8,0c-0.3,0-0.6,0-0.8,0v4.8c0,0.1,0,0.2-0.1,0.2s-0.1,0.1-0.2,0.1h-1.8c-0.1,0-0.2,0-0.2-0.1s-0.1-0.2-0.1-0.2
			V15.9c0-0.2,0.1-0.3,0.2-0.4c0.1-0.1,0.2-0.1,0.4-0.2c0.5-0.1,1-0.1,1.6-0.2s1.2-0.1,1.9-0.1c0.7,0,1.3,0.1,2,0.2
			c0.6,0.1,1.2,0.4,1.6,0.7c0.5,0.3,0.8,0.7,1.1,1.2c0.3,0.5,0.4,1.1,0.4,1.9v0.2c0,0.9-0.2,1.7-0.7,2.3c-0.4,0.6-1,1-1.8,1.3
			l2.8,5.2C74.9,28.2,74.9,28.2,74.9,28.3z M72,19.2c0-0.7-0.2-1.2-0.7-1.5c-0.4-0.3-1.1-0.4-2-0.4c-0.1,0-0.2,0-0.4,0
			c-0.1,0-0.3,0-0.5,0c-0.2,0-0.3,0-0.4,0c-0.1,0-0.2,0-0.3,0v4c0.1,0,0.2,0,0.3,0c0.1,0,0.3,0,0.5,0c0.2,0,0.3,0,0.5,0
			c0.1,0,0.3,0,0.3,0c0.9,0,1.6-0.1,2-0.4s0.6-0.8,0.6-1.6V19.2z"/>
		<path class="st1" d="M84.2,28.3c-0.1,0-0.1,0.1-0.3,0.1c-0.1,0-0.3,0.1-0.5,0.1c-0.2,0-0.4,0.1-0.6,0.1c-0.3,0-0.6,0-0.9,0.1
			c-0.4,0-0.8,0-1.3,0c-0.6,0-1.1,0-1.6-0.1c-0.5-0.1-0.9-0.3-1.3-0.5s-0.7-0.6-0.9-1.1c-0.2-0.5-0.3-1.1-0.3-1.8v-6.2
			c0-0.8,0.1-1.4,0.3-1.8c0.2-0.5,0.5-0.8,0.9-1.1s0.8-0.4,1.3-0.5c0.5-0.1,1-0.1,1.6-0.1c0.5,0,1,0,1.3,0c0.4,0,0.7,0,0.9,0.1
			c0.3,0,0.5,0.1,0.6,0.1c0.2,0,0.3,0.1,0.5,0.1c0.1,0,0.2,0.1,0.3,0.1c0.1,0,0.1,0.1,0.1,0.3v1.1c0,0.1,0,0.2-0.1,0.2
			s-0.2,0.1-0.2,0.1h-3.6c-0.5,0-0.9,0.1-1.1,0.3s-0.3,0.6-0.3,1.2v1.9h4.8c0.1,0,0.2,0,0.2,0.1c0.1,0.1,0.1,0.2,0.1,0.2v1.3
			c0,0.1,0,0.2-0.1,0.2c-0.1,0.1-0.2,0.1-0.2,0.1h-4.8V25c0,0.6,0.1,1,0.3,1.2c0.2,0.2,0.6,0.3,1.1,0.3h3.6c0.1,0,0.2,0,0.2,0.1
			c0.1,0.1,0.1,0.2,0.1,0.2V28C84.3,28.2,84.2,28.2,84.2,28.3z"/>
		<path class="st1" d="M94.4,17.2c-0.1,0.1-0.2,0.1-0.2,0.1h-3.6c-0.5,0-0.9,0.1-1.1,0.3s-0.3,0.6-0.3,1.2v1.9h4.8
			c0.1,0,0.2,0,0.2,0.1c0.1,0.1,0.1,0.2,0.1,0.2v1.3c0,0.1,0,0.2-0.1,0.2c-0.1,0.1-0.2,0.1-0.2,0.1h-4.8v5.4c0,0.1,0,0.2-0.1,0.2
			s-0.2,0.1-0.3,0.1H87c-0.1,0-0.2,0-0.3-0.1c-0.1-0.1-0.1-0.2-0.1-0.2v-9.3c0-0.8,0.1-1.4,0.3-1.8c0.2-0.5,0.5-0.8,0.9-1.1
			s0.8-0.4,1.3-0.5c0.5-0.1,1-0.1,1.6-0.1c0.5,0,1,0,1.3,0c0.4,0,0.7,0,0.9,0.1c0.3,0,0.5,0.1,0.6,0.1c0.2,0,0.3,0.1,0.5,0.1
			c0.1,0,0.2,0.1,0.3,0.1c0.1,0,0.1,0.1,0.1,0.3v1.1C94.5,17,94.4,17.1,94.4,17.2z"/>
		<path class="st1" d="M105.5,28.2c0,0.1,0,0.2-0.1,0.2c-0.1,0.1-0.1,0.1-0.2,0.1h-1.9c-0.1,0-0.2,0-0.2-0.1
			c-0.1-0.1-0.1-0.1-0.1-0.2l-0.8-3.4h-4.1l-0.8,3.4c0,0.1-0.1,0.2-0.1,0.2c-0.1,0.1-0.1,0.1-0.2,0.1H95c-0.1,0-0.2,0-0.2-0.1
			c-0.1-0.1-0.1-0.1-0.1-0.2c0,0,0,0,0,0s0,0,0-0.1L97.6,17c0.1-0.4,0.3-0.7,0.5-1c0.2-0.2,0.4-0.4,0.6-0.5s0.5-0.2,0.7-0.2
			c0.2,0,0.5-0.1,0.6-0.1c0.2,0,0.4,0,0.6,0.1s0.5,0.1,0.7,0.2s0.4,0.3,0.6,0.5c0.2,0.2,0.4,0.6,0.5,1L105.5,28.2
			C105.5,28.1,105.5,28.2,105.5,28.2C105.5,28.2,105.5,28.2,105.5,28.2z M100.4,17.5c0-0.1-0.1-0.2-0.1-0.2c0,0-0.1-0.1-0.2-0.1
			c-0.1,0-0.2,0-0.2,0.1c0,0-0.1,0.1-0.1,0.2l-1.3,5.3h3.1L100.4,17.5z"/>
		<path class="st1" d="M116.5,24.8c0,0.7-0.1,1.3-0.4,1.8c-0.3,0.5-0.6,0.9-1.1,1.2c-0.5,0.3-1,0.5-1.7,0.7s-1.4,0.2-2.2,0.2
			c-0.7,0-1.3,0-1.9-0.1c-0.5,0-0.9-0.1-1.2-0.1c-0.3-0.1-0.5-0.2-0.6-0.3c-0.1-0.1-0.2-0.4-0.2-0.7V16.3c0-0.3,0.1-0.5,0.2-0.7
			c0.1-0.1,0.3-0.2,0.6-0.3c0.2,0,0.6-0.1,1.1-0.1c0.5,0,1.1-0.1,1.8-0.1c0.8,0,1.5,0.1,2.2,0.2c0.7,0.1,1.2,0.3,1.7,0.6
			s0.9,0.7,1.1,1.1c0.3,0.5,0.4,1,0.4,1.7v0.4c0,0.6-0.1,1.1-0.4,1.6c-0.3,0.5-0.7,0.8-1.2,1.1c0.5,0.2,1,0.6,1.3,1
			c0.3,0.4,0.5,1,0.5,1.7V24.8z M114,18.9c0-0.6-0.2-1.1-0.7-1.3c-0.5-0.3-1.3-0.4-2.4-0.4c-0.2,0-0.4,0-0.7,0s-0.4,0-0.6,0v3.6h2.3
			c0.4,0,0.8,0,1-0.1s0.5-0.2,0.6-0.4c0.2-0.2,0.3-0.3,0.3-0.5c0.1-0.2,0.1-0.4,0.1-0.7V18.9z M114.1,24.5c0-0.2,0-0.5-0.1-0.7
			s-0.2-0.4-0.4-0.6s-0.4-0.3-0.7-0.4s-0.6-0.2-1-0.2h-2.3v3.9c0.2,0,0.5,0,0.7,0c0.3,0,0.5,0,0.7,0c0.6,0,1,0,1.4-0.1
			c0.4-0.1,0.7-0.2,0.9-0.3s0.4-0.3,0.5-0.6s0.2-0.5,0.2-0.8V24.5z"/>
		<path class="st1" d="M128.3,28.3c0,0.1-0.1,0.2-0.2,0.2h-2.2c-0.1,0-0.2,0-0.2-0.1c0-0.1-0.1-0.2-0.1-0.2l-2.6-4.7h-0.2
			c-0.2,0-0.5,0-0.8,0c-0.3,0-0.6,0-0.8,0v4.8c0,0.1,0,0.2-0.1,0.2s-0.1,0.1-0.2,0.1H119c-0.1,0-0.2,0-0.2-0.1s-0.1-0.2-0.1-0.2
			V15.9c0-0.2,0.1-0.3,0.2-0.4c0.1-0.1,0.2-0.1,0.4-0.2c0.5-0.1,1-0.1,1.6-0.2s1.2-0.1,1.9-0.1c0.7,0,1.3,0.1,2,0.2
			c0.6,0.1,1.2,0.4,1.6,0.7c0.5,0.3,0.8,0.7,1.1,1.2c0.3,0.5,0.4,1.1,0.4,1.9v0.2c0,0.9-0.2,1.7-0.7,2.3c-0.4,0.6-1,1-1.8,1.3
			l2.8,5.2C128.3,28.2,128.3,28.2,128.3,28.3z M125.4,19.2c0-0.7-0.2-1.2-0.7-1.5c-0.4-0.3-1.1-0.4-2-0.4c-0.1,0-0.2,0-0.4,0
			c-0.1,0-0.3,0-0.5,0c-0.2,0-0.3,0-0.4,0c-0.1,0-0.2,0-0.3,0v4c0.1,0,0.2,0,0.3,0c0.1,0,0.3,0,0.5,0c0.2,0,0.3,0,0.5,0
			c0.1,0,0.3,0,0.3,0c0.9,0,1.6-0.1,2-0.4s0.6-0.8,0.6-1.6V19.2z"/>
		<path class="st1" d="M132.6,28.4c-0.1,0.1-0.2,0.1-0.2,0.1h-1.8c-0.1,0-0.2,0-0.2-0.1s-0.1-0.2-0.1-0.2V15.7c0-0.1,0-0.2,0.1-0.2
			c0.1-0.1,0.2-0.1,0.2-0.1h1.8c0.1,0,0.2,0,0.2,0.1c0.1,0.1,0.1,0.1,0.1,0.2v12.5C132.7,28.2,132.7,28.3,132.6,28.4z"/>
		<path class="st1" d="M143.1,28.2c-0.1,0.1-0.2,0.1-0.3,0.1c-0.1,0-0.2,0.1-0.4,0.1c-0.2,0-0.4,0.1-0.6,0.1c-0.2,0-0.5,0.1-0.8,0.1
			c-0.3,0-0.6,0-1,0c-0.5,0-1.1-0.1-1.7-0.2c-0.6-0.2-1.1-0.4-1.6-0.8c-0.5-0.4-0.9-1-1.2-1.7c-0.3-0.7-0.5-1.6-0.5-2.7v-2.6
			c0-1.1,0.2-2,0.5-2.7c0.3-0.7,0.7-1.3,1.2-1.7c0.5-0.4,1-0.7,1.6-0.8c0.6-0.1,1.2-0.2,1.7-0.2c0.3,0,0.7,0,1,0
			c0.3,0,0.6,0.1,0.8,0.1c0.2,0,0.5,0.1,0.6,0.1c0.2,0,0.3,0.1,0.4,0.1c0.1,0,0.2,0.1,0.3,0.1s0.1,0.1,0.1,0.3v1.2
			c0,0.1,0,0.2-0.1,0.3c-0.1,0.1-0.1,0.1-0.3,0.1h0c-0.2,0-0.3,0-0.6,0c-0.2,0-0.5,0-0.7,0c-0.2,0-0.5,0-0.8,0c-0.3,0-0.5,0-0.7,0
			c-0.4,0-0.7,0.1-1,0.2c-0.3,0.1-0.6,0.3-0.8,0.5c-0.2,0.3-0.4,0.6-0.5,1c-0.1,0.4-0.2,1-0.2,1.6v2.6c0,0.6,0.1,1.1,0.2,1.6
			c0.1,0.4,0.3,0.8,0.5,1c0.2,0.3,0.5,0.4,0.8,0.6c0.3,0.1,0.7,0.2,1,0.2c0.2,0,0.5,0,0.7,0s0.5,0,0.8,0c0.2,0,0.5,0,0.7,0
			c0.2,0,0.4,0,0.6,0h0c0.1,0,0.2,0,0.3,0.1c0.1,0.1,0.1,0.2,0.1,0.3V28C143.2,28.1,143.2,28.2,143.1,28.2z"/>
		<path class="st1" d="M155.2,28.2c0,0.1,0,0.2-0.1,0.2c-0.1,0.1-0.1,0.1-0.2,0.1H153c-0.1,0-0.2,0-0.2-0.1
			c-0.1-0.1-0.1-0.1-0.1-0.2l-0.8-3.4h-4.1l-0.8,3.4c0,0.1-0.1,0.2-0.1,0.2c-0.1,0.1-0.1,0.1-0.2,0.1h-1.9c-0.1,0-0.2,0-0.2-0.1
			c-0.1-0.1-0.1-0.1-0.1-0.2c0,0,0,0,0,0s0,0,0-0.1l2.9-11.1c0.1-0.4,0.3-0.7,0.5-1c0.2-0.2,0.4-0.4,0.6-0.5s0.5-0.2,0.7-0.2
			c0.2,0,0.5-0.1,0.6-0.1c0.2,0,0.4,0,0.6,0.1s0.5,0.1,0.7,0.2s0.4,0.3,0.6,0.5c0.2,0.2,0.4,0.6,0.5,1L155.2,28.2
			C155.2,28.1,155.2,28.2,155.2,28.2C155.2,28.2,155.2,28.2,155.2,28.2z M150.1,17.5c0-0.1-0.1-0.2-0.1-0.2c0,0-0.1-0.1-0.2-0.1
			c-0.1,0-0.2,0-0.2,0.1c0,0-0.1,0.1-0.1,0.2l-1.3,5.3h3.1L150.1,17.5z"/>
		<path class="st1" d="M164.2,28.2c-0.1,0.1-0.2,0.1-0.3,0.1c-0.1,0-0.2,0.1-0.4,0.1c-0.2,0-0.4,0.1-0.6,0.1c-0.2,0-0.5,0.1-0.8,0.1
			c-0.3,0-0.6,0-1,0c-0.5,0-1.1-0.1-1.7-0.2c-0.6-0.2-1.1-0.4-1.6-0.8c-0.5-0.4-0.9-1-1.2-1.7c-0.3-0.7-0.5-1.6-0.5-2.7v-2.6
			c0-1.1,0.2-2,0.5-2.7c0.3-0.7,0.7-1.3,1.2-1.7c0.5-0.4,1-0.7,1.6-0.8c0.6-0.1,1.2-0.2,1.7-0.2c0.3,0,0.7,0,1,0
			c0.3,0,0.6,0.1,0.8,0.1c0.2,0,0.5,0.1,0.6,0.1c0.2,0,0.3,0.1,0.4,0.1c0.1,0,0.2,0.1,0.3,0.1s0.1,0.1,0.1,0.3v1.2
			c0,0.1,0,0.2-0.1,0.3c-0.1,0.1-0.1,0.1-0.3,0.1h0c-0.2,0-0.3,0-0.6,0c-0.2,0-0.5,0-0.7,0c-0.2,0-0.5,0-0.8,0c-0.3,0-0.5,0-0.7,0
			c-0.4,0-0.7,0.1-1,0.2c-0.3,0.1-0.6,0.3-0.8,0.5c-0.2,0.3-0.4,0.6-0.5,1c-0.1,0.4-0.2,1-0.2,1.6v2.6c0,0.6,0.1,1.1,0.2,1.6
			c0.1,0.4,0.3,0.8,0.5,1c0.2,0.3,0.5,0.4,0.8,0.6c0.3,0.1,0.7,0.2,1,0.2c0.2,0,0.5,0,0.7,0s0.5,0,0.8,0c0.2,0,0.5,0,0.7,0
			c0.2,0,0.4,0,0.6,0h0c0.1,0,0.2,0,0.3,0.1c0.1,0.1,0.1,0.2,0.1,0.3V28C164.3,28.1,164.3,28.2,164.2,28.2z"/>
		<path class="st1" d="M174.2,28.3c-0.1,0-0.1,0.1-0.3,0.1c-0.1,0-0.3,0.1-0.5,0.1c-0.2,0-0.4,0.1-0.6,0.1c-0.3,0-0.6,0-0.9,0.1
			c-0.4,0-0.8,0-1.3,0c-0.6,0-1.1,0-1.6-0.1c-0.5-0.1-0.9-0.3-1.3-0.5s-0.7-0.6-0.9-1.1c-0.2-0.5-0.3-1.1-0.3-1.8v-6.2
			c0-0.8,0.1-1.4,0.3-1.8c0.2-0.5,0.5-0.8,0.9-1.1s0.8-0.4,1.3-0.5c0.5-0.1,1-0.1,1.6-0.1c0.5,0,1,0,1.3,0c0.4,0,0.7,0,0.9,0.1
			c0.3,0,0.5,0.1,0.6,0.1c0.2,0,0.3,0.1,0.5,0.1c0.1,0,0.2,0.1,0.3,0.1c0.1,0,0.1,0.1,0.1,0.3v1.1c0,0.1,0,0.2-0.1,0.2
			s-0.2,0.1-0.2,0.1h-3.6c-0.5,0-0.9,0.1-1.1,0.3s-0.3,0.6-0.3,1.2v1.9h4.8c0.1,0,0.2,0,0.2,0.1c0.1,0.1,0.1,0.2,0.1,0.2v1.3
			c0,0.1,0,0.2-0.1,0.2c-0.1,0.1-0.2,0.1-0.2,0.1h-4.8V25c0,0.6,0.1,1,0.3,1.2c0.2,0.2,0.6,0.3,1.1,0.3h3.6c0.1,0,0.2,0,0.2,0.1
			c0.1,0.1,0.1,0.2,0.1,0.2V28C174.3,28.2,174.3,28.2,174.2,28.3z"/>
		<path class="st1" d="M186.3,28.3c0,0.1-0.1,0.2-0.2,0.2h-2.2c-0.1,0-0.2,0-0.2-0.1c0-0.1-0.1-0.2-0.1-0.2l-2.6-4.7h-0.2
			c-0.2,0-0.5,0-0.8,0c-0.3,0-0.6,0-0.8,0v4.8c0,0.1,0,0.2-0.1,0.2s-0.1,0.1-0.2,0.1H177c-0.1,0-0.2,0-0.2-0.1s-0.1-0.2-0.1-0.2
			V15.9c0-0.2,0.1-0.3,0.2-0.4c0.1-0.1,0.2-0.1,0.4-0.2c0.5-0.1,1-0.1,1.6-0.2s1.2-0.1,1.9-0.1c0.7,0,1.3,0.1,2,0.2
			c0.6,0.1,1.2,0.4,1.6,0.7c0.5,0.3,0.8,0.7,1.1,1.2c0.3,0.5,0.4,1.1,0.4,1.9v0.2c0,0.9-0.2,1.7-0.7,2.3c-0.4,0.6-1,1-1.8,1.3
			l2.8,5.2C186.2,28.2,186.3,28.2,186.3,28.3z M183.4,19.2c0-0.7-0.2-1.2-0.7-1.5c-0.4-0.3-1.1-0.4-2-0.4c-0.1,0-0.2,0-0.4,0
			c-0.1,0-0.3,0-0.5,0c-0.2,0-0.3,0-0.4,0c-0.1,0-0.2,0-0.3,0v4c0.1,0,0.2,0,0.3,0c0.1,0,0.3,0,0.5,0c0.2,0,0.3,0,0.5,0
			c0.1,0,0.3,0,0.3,0c0.9,0,1.6-0.1,2-0.4s0.6-0.8,0.6-1.6V19.2z"/>
		<path class="st1" d="M197.6,23.1c0,1-0.1,1.8-0.4,2.5c-0.3,0.7-0.6,1.3-1.1,1.7c-0.4,0.4-1,0.8-1.6,1s-1.3,0.3-2,0.3
			c-0.7,0-1.4-0.1-2-0.3c-0.6-0.2-1.1-0.5-1.6-1c-0.4-0.4-0.8-1-1.1-1.7c-0.3-0.7-0.4-1.5-0.4-2.5v-2.4c0-1,0.1-1.8,0.4-2.5
			s0.6-1.3,1.1-1.7c0.4-0.4,1-0.8,1.6-1c0.6-0.2,1.3-0.3,2-0.3c0.7,0,1.4,0.1,2,0.3s1.1,0.5,1.6,1c0.4,0.4,0.8,1,1.1,1.7
			c0.3,0.7,0.4,1.5,0.4,2.5V23.1z M195.2,20.7c0-1.2-0.2-2-0.6-2.6c-0.4-0.5-1.1-0.8-1.9-0.8s-1.5,0.3-1.9,0.8
			c-0.4,0.5-0.6,1.4-0.6,2.6v2.4c0,1.2,0.2,2,0.6,2.6c0.4,0.5,1.1,0.8,1.9,0.8s1.5-0.3,1.9-0.8c0.4-0.5,0.6-1.4,0.6-2.6V20.7z"/>
		<path class="st1" d="M208,24.9c0,0.4-0.1,0.9-0.2,1.3s-0.4,0.8-0.8,1.2c-0.4,0.3-0.8,0.6-1.4,0.9c-0.6,0.2-1.3,0.3-2.2,0.3
			c-0.7,0-1.3,0-1.8-0.1s-1-0.1-1.4-0.2c-0.1,0-0.2-0.1-0.2-0.1s-0.1-0.1-0.1-0.2v-1.3c0-0.1,0-0.2,0.1-0.2s0.1-0.1,0.2-0.1h0
			c0.2,0,0.4,0,0.7,0.1c0.3,0,0.6,0,0.9,0.1c0.3,0,0.6,0,0.9,0c0.3,0,0.5,0,0.7,0c0.8,0,1.3-0.1,1.6-0.4c0.3-0.3,0.4-0.7,0.4-1.2
			c0-0.2,0-0.3-0.1-0.5c0-0.1-0.1-0.3-0.2-0.4s-0.3-0.3-0.5-0.4c-0.2-0.1-0.4-0.3-0.7-0.5l-2.3-1.4c-0.4-0.2-0.8-0.5-1-0.7
			c-0.3-0.2-0.5-0.5-0.6-0.8s-0.3-0.5-0.3-0.8c-0.1-0.3-0.1-0.6-0.1-0.9c0-0.5,0.1-0.9,0.2-1.3c0.2-0.4,0.4-0.8,0.8-1.1
			c0.3-0.3,0.8-0.5,1.4-0.7c0.6-0.2,1.3-0.2,2.1-0.2c0.3,0,0.6,0,0.9,0c0.3,0,0.7,0,1,0.1c0.3,0,0.6,0.1,0.9,0.1
			c0.3,0,0.5,0.1,0.6,0.1c0.1,0,0.2,0.1,0.2,0.1c0.1,0.1,0.1,0.1,0.1,0.2v1.3c0,0.1,0,0.2-0.1,0.2s-0.1,0.1-0.2,0.1h0
			c-0.6-0.1-1.2-0.1-1.8-0.1c-0.6,0-1.2,0-1.7,0c-0.7,0-1.1,0.1-1.4,0.3c-0.3,0.2-0.4,0.5-0.4,0.9c0,0.1,0,0.3,0.1,0.4
			s0.1,0.2,0.2,0.4s0.3,0.3,0.5,0.4c0.2,0.1,0.4,0.3,0.7,0.4l2.1,1.2c0.5,0.3,0.9,0.5,1.2,0.8s0.6,0.6,0.8,0.9
			c0.2,0.3,0.3,0.6,0.4,0.9C207.9,24.2,208,24.6,208,24.9z"/>
	</g>
</g>
</svg>
